<svg xmlns="http://www.w3.org/2000/svg" width="553.28125" height="398.3125" style="width:553.28125px;height:398.3125px;font-family:Asana-Math, Asana;background:transparent;"><g style="transform:;transform-origin:276.640625px 199.15625px;"><g><g style="transform:translate(34.640625px,30px);"><path d="" stroke="rgb(0, 0, 0)" stroke-width="8" fill="rgb(0, 0, 0)" style="transform:scale(0.017,-0.017);"></path></g><g><g style="transform:;transform-origin:151.9921875px 11px;"><g><g style="transform:translate(146.078125px,18px);"><path d="M189 -10C33 -10 -71 155 37 317C135 463 320 483 382 366L439 688C447 695 469 694 475 694C516 694 686 683 707 683C709 683 706 667 703 651C656 651 632 644 625 617C624 613 545 168 516 0L463 0L365 90C314 39 274 -10 189 -10ZM479 615C451 454 398 154 398 152C397 134 445 113 474 144L557 615C554 624 541 632 530 636C501 648 480 616 479 615ZM103 38L165 388C124 364 82 320 64 252C31 149 66 73 103 38ZM148 25C213 19 273 43 340 129L372 307C346 382 287 422 214 398Z" stroke="rgb(0, 0, 0)" stroke-width="8" fill="rgb(0, 0, 0)" style="transform:scale(0.017,-0.017);"></path></g></g></g><g style="transform:;transform-origin:151.9921875px 36px;"><g><g style="transform:translate(142.078125px,43px);"><path d="M189 -10C33 -10 -71 155 37 317C135 463 320 483 382 366L439 688C447 695 469 694 475 694C516 694 686 683 707 683C709 683 706 667 703 651C656 651 632 644 625 617C624 613 545 168 516 0L463 0L365 90C314 39 274 -10 189 -10ZM479 615C451 454 398 154 398 152C397 134 445 113 474 144L557 615C554 624 541 632 530 636C501 648 480 616 479 615ZM103 38L165 388C124 364 82 320 64 252C31 149 66 73 103 38ZM148 25C213 19 273 43 340 129L372 307C346 382 287 422 214 398ZM676 1C691 -7 707 -11 719 -11C752 -11 791 18 822 65L898 182L909 113C922 28 945 -11 981 -11C1003 -11 1035 6 1067 35L1116 79L1107 98C1071 68 1046 53 1030 53C1015 53 1002 63 992 83C983 102 972 139 967 168L949 269L984 318C1031 383 1058 406 1089 406C1105 406 1117 398 1122 383L1136 387L1151 472C1139 479 1130 482 1121 482C1081 482 1041 446 979 354L942 299L936 347C924 446 897 482 838 482C812 482 790 474 781 461L723 378L740 368C770 402 790 416 809 416C842 416 864 375 881 277L892 215L852 153C809 86 775 54 747 54C732 54 721 58 719 63L708 91L688 88C688 53 680 27 676 1Z" stroke="rgb(0, 0, 0)" stroke-width="8" fill="rgb(0, 0, 0)" style="transform:scale(0.017,-0.017);"></path></g></g></g><line style="fill:none;stroke-width:1px;stroke:rgb(0, 0, 0);" x1="142.078125" y1="25.75" x2="161.90625" y2="25.75"></line></g><g style="transform:translate(163.640625px,30px);"><path d="" stroke="rgb(0, 0, 0)" stroke-width="8" fill="rgb(0, 0, 0)" style="transform:scale(0.017,-0.017);"></path></g><g><g style="transform:;transform-origin:177.9765625px 11px;"><g><g style="transform:translate(173.734375px,18px);"><path d="M418 -3L418 27L366 30C311 33 301 44 301 96L301 700L60 598L67 548L217 614L217 96C217 44 206 33 152 30L96 27L96 -3C250 0 250 0 261 0C292 0 402 -3 418 -3Z" stroke="rgb(0, 0, 0)" stroke-width="8" fill="rgb(0, 0, 0)" style="transform:scale(0.017,-0.017);"></path></g></g></g><g style="transform:;transform-origin:177.9765625px 36px;"><g><g style="transform:translate(173.734375px,43px);"><path d="M9 1C24 -7 40 -11 52 -11C85 -11 124 18 155 65L231 182L242 113C255 28 278 -11 314 -11C336 -11 368 6 400 35L449 79L440 98C404 68 379 53 363 53C348 53 335 63 325 83C316 102 305 139 300 168L282 269L317 318C364 383 391 406 422 406C438 406 450 398 455 383L469 387L484 472C472 479 463 482 454 482C414 482 374 446 312 354L275 299L269 347C257 446 230 482 171 482C145 482 123 474 114 461L56 378L73 368C103 402 123 416 142 416C175 416 197 375 214 277L225 215L185 153C142 86 108 54 80 54C65 54 54 58 52 63L41 91L21 88C21 53 13 27 9 1Z" stroke="rgb(0, 0, 0)" stroke-width="8" fill="rgb(0, 0, 0)" style="transform:scale(0.017,-0.017);"></path></g></g></g><line style="fill:none;stroke-width:1px;stroke:rgb(0, 0, 0);" x1="173.734375" y1="25.75" x2="182.21875" y2="25.75"></line></g><g style="transform:translate(183.640625px,30px);"><path d="" stroke="rgb(0, 0, 0)" stroke-width="8" fill="rgb(0, 0, 0)" style="transform:scale(0.017,-0.017);"></path></g><g style="transform:translate(192.640625px,30px);"><path d="M604 347L604 406L65 406L65 347ZM604 134L604 193L65 193L65 134Z" stroke="rgb(0, 0, 0)" stroke-width="8" fill="rgb(0, 0, 0)" style="transform:scale(0.017,-0.017);"></path></g><g style="transform:translate(209.640625px,30px);"><path d="" stroke="rgb(0, 0, 0)" stroke-width="8" fill="rgb(0, 0, 0)" style="transform:scale(0.017,-0.017);"></path></g><g style="transform:translate(216.640625px,30px);"><path d="M555 243L555 299L51 299L51 243Z" stroke="rgb(0, 0, 0)" stroke-width="8" fill="rgb(0, 0, 0)" style="transform:scale(0.017,-0.017);"></path></g><g><g style="transform:;transform-origin:238.875px 11px;"><g><g style="transform:translate(234.65625px,18px);"><path d="M418 -3L418 27L366 30C311 33 301 44 301 96L301 700L60 598L67 548L217 614L217 96C217 44 206 33 152 30L96 27L96 -3C250 0 250 0 261 0C292 0 402 -3 418 -3Z" stroke="rgb(0, 0, 0)" stroke-width="8" fill="rgb(0, 0, 0)" style="transform:scale(0.017,-0.017);"></path></g></g></g><g style="transform:;transform-origin:238.875px 36.9921875px;"><g><g style="transform:translate(231.65625px,44.984375px);"><path d="M9 1C24 -7 40 -11 52 -11C85 -11 124 18 155 65L231 182L242 113C255 28 278 -11 314 -11C336 -11 368 6 400 35L449 79L440 98C404 68 379 53 363 53C348 53 335 63 325 83C316 102 305 139 300 168L282 269L317 318C364 383 391 406 422 406C438 406 450 398 455 383L469 387L484 472C472 479 463 482 454 482C414 482 374 446 312 354L275 299L269 347C257 446 230 482 171 482C145 482 123 474 114 461L56 378L73 368C103 402 123 416 142 416C175 416 197 375 214 277L225 215L185 153C142 86 108 54 80 54C65 54 54 58 52 63L41 91L21 88C21 53 13 27 9 1Z" stroke="rgb(0, 0, 0)" stroke-width="8" fill="rgb(0, 0, 0)" style="transform:scale(0.017,-0.017);"></path></g><g><g style="transform:;transform-origin:243.1015625px 33.5px;"><g><g style="transform:translate(240.125px,37.9px);"><path d="M16 23L16 -3C203 -3 203 0 239 0C275 0 275 -3 468 -3L468 82C353 77 307 81 122 77L304 270C401 373 431 428 431 503C431 618 353 689 226 689C154 689 105 669 56 619L39 483L68 483L81 529C97 587 133 612 200 612C286 612 341 558 341 473C341 398 299 324 186 204Z" stroke="rgb(0, 0, 0)" stroke-width="8" fill="rgb(0, 0, 0)" style="transform:scale(0.0119,-0.0119);"></path></g></g></g></g></g></g><line style="fill:none;stroke-width:1px;stroke:rgb(0, 0, 0);" x1="231.65625" y1="25.75" x2="246.09375" y2="25.75"></line></g><g style="transform:translate(247.640625px,30px);"><path d="" stroke="rgb(0, 0, 0)" stroke-width="8" fill="rgb(0, 0, 0)" style="transform:scale(0.017,-0.017);"></path></g></g><g><g style="transform:translate(229.640625px,64.984375px);"><path d="" stroke="rgb(0, 0, 0)" stroke-width="8" fill="rgb(0, 0, 0)" style="transform:scale(0.017,-0.017);"></path></g></g><g><g style="transform:translate(31.640625px,96.984375px);"><path d="" stroke="rgb(0, 0, 0)" stroke-width="8" fill="rgb(0, 0, 0)" style="transform:scale(0.017,-0.017);"></path></g><g><g style="transform:;transform-origin:123.3984375px 77.984375px;"><g><g style="transform:translate(117.484375px,84.984375px);"><path d="M189 -10C33 -10 -71 155 37 317C135 463 320 483 382 366L439 688C447 695 469 694 475 694C516 694 686 683 707 683C709 683 706 667 703 651C656 651 632 644 625 617C624 613 545 168 516 0L463 0L365 90C314 39 274 -10 189 -10ZM479 615C451 454 398 154 398 152C397 134 445 113 474 144L557 615C554 624 541 632 530 636C501 648 480 616 479 615ZM103 38L165 388C124 364 82 320 64 252C31 149 66 73 103 38ZM148 25C213 19 273 43 340 129L372 307C346 382 287 422 214 398Z" stroke="rgb(0, 0, 0)" stroke-width="8" fill="rgb(0, 0, 0)" style="transform:scale(0.017,-0.017);"></path></g></g></g><g style="transform:;transform-origin:123.3984375px 102.984375px;"><g><g style="transform:translate(113.484375px,109.984375px);"><path d="M189 -10C33 -10 -71 155 37 317C135 463 320 483 382 366L439 688C447 695 469 694 475 694C516 694 686 683 707 683C709 683 706 667 703 651C656 651 632 644 625 617C624 613 545 168 516 0L463 0L365 90C314 39 274 -10 189 -10ZM479 615C451 454 398 154 398 152C397 134 445 113 474 144L557 615C554 624 541 632 530 636C501 648 480 616 479 615ZM103 38L165 388C124 364 82 320 64 252C31 149 66 73 103 38ZM148 25C213 19 273 43 340 129L372 307C346 382 287 422 214 398ZM676 1C691 -7 707 -11 719 -11C752 -11 791 18 822 65L898 182L909 113C922 28 945 -11 981 -11C1003 -11 1035 6 1067 35L1116 79L1107 98C1071 68 1046 53 1030 53C1015 53 1002 63 992 83C983 102 972 139 967 168L949 269L984 318C1031 383 1058 406 1089 406C1105 406 1117 398 1122 383L1136 387L1151 472C1139 479 1130 482 1121 482C1081 482 1041 446 979 354L942 299L936 347C924 446 897 482 838 482C812 482 790 474 781 461L723 378L740 368C770 402 790 416 809 416C842 416 864 375 881 277L892 215L852 153C809 86 775 54 747 54C732 54 721 58 719 63L708 91L688 88C688 53 680 27 676 1Z" stroke="rgb(0, 0, 0)" stroke-width="8" fill="rgb(0, 0, 0)" style="transform:scale(0.017,-0.017);"></path></g></g></g><line style="fill:none;stroke-width:1px;stroke:rgb(0, 0, 0);" x1="113.484375" y1="92.734375" x2="133.3125" y2="92.734375"></line></g><g style="transform:translate(134.640625px,96.984375px);"><path d="M749 722L737 733C685 707 649 698 577 691L573 670L621 670C645 670 655 663 655 648C655 645 655 640 652 622C641 567 568 182 553 132C540 82 534 52 534 31C534 6 545 -9 564 -9C590 -9 626 12 724 85L714 103L688 86C659 67 637 56 627 56C620 56 614 66 614 76C614 82 615 89 618 104ZM792 152C792 46 837 -11 920 -11C975 -11 1035 15 1080 57C1142 116 1186 230 1186 331C1186 425 1136 482 1053 482C949 482 792 382 792 152ZM1016 444C1077 444 1110 399 1110 315C1110 219 1079 113 1035 60C1017 39 991 27 960 27C902 27 868 72 868 151C868 264 907 387 956 427C969 438 992 444 1016 444ZM1493 482C1426 482 1273 419 1273 259C1273 182 1318 136 1395 136C1403 136 1414 136 1425 137L1384 99C1368 84 1357 66 1357 52C1357 42 1364 31 1378 19C1309 -4 1181 -48 1181 -159C1181 -230 1251 -276 1360 -276C1489 -276 1602 -204 1602 -121C1602 -85 1581 -49 1538 -14L1478 35C1444 62 1431 81 1431 100C1431 114 1446 128 1458 146C1556 170 1627 253 1627 342C1627 357 1624 376 1623 380C1640 378 1648 378 1657 378C1674 378 1684 379 1707 382L1716 427L1713 433C1685 426 1665 424 1611 424C1611 425 1587 482 1493 482ZM1394 1L1471 -58C1517 -94 1536 -121 1536 -154C1536 -206 1467 -248 1384 -248C1302 -248 1245 -206 1245 -145C1245 -43 1355 -11 1394 1ZM1468 448C1526 448 1555 412 1555 341C1555 238 1507 168 1437 168C1376 168 1344 209 1344 288C1344 383 1395 448 1468 448Z" stroke="rgb(0, 0, 0)" stroke-width="8" fill="rgb(0, 0, 0)" style="transform:scale(0.017,-0.017);"></path></g><g style="transform:translate(164.1875px,96.984375px);"><path d="M146 266C146 526 243 632 301 700L282 726C225 675 60 542 60 266C60 159 85 58 133 -32C168 -99 200 -138 282 -215L301 -194C255 -137 146 -15 146 266Z" stroke="rgb(0, 0, 0)" stroke-width="8" fill="rgb(0, 0, 0)" style="transform:scale(0.017,-0.017);"></path></g><g style="transform:translate(169.640625px,96.984375px);"><path d="M9 1C24 -7 40 -11 52 -11C85 -11 124 18 155 65L231 182L242 113C255 28 278 -11 314 -11C336 -11 368 6 400 35L449 79L440 98C404 68 379 53 363 53C348 53 335 63 325 83C316 102 305 139 300 168L282 269L317 318C364 383 391 406 422 406C438 406 450 398 455 383L469 387L484 472C472 479 463 482 454 482C414 482 374 446 312 354L275 299L269 347C257 446 230 482 171 482C145 482 123 474 114 461L56 378L73 368C103 402 123 416 142 416C175 416 197 375 214 277L225 215L185 153C142 86 108 54 80 54C65 54 54 58 52 63L41 91L21 88C21 53 13 27 9 1Z" stroke="rgb(0, 0, 0)" stroke-width="8" fill="rgb(0, 0, 0)" style="transform:scale(0.017,-0.017);"></path></g><g style="transform:translate(178.3125px,96.984375px);"><path d="M51 726L32 700C87 636 187 526 187 266C187 -10 83 -131 32 -194L51 -215C104 -165 273 -23 273 265C273 542 108 675 51 726Z" stroke="rgb(0, 0, 0)" stroke-width="8" fill="rgb(0, 0, 0)" style="transform:scale(0.017,-0.017);"></path></g><g style="transform:translate(183.640625px,96.984375px);"><path d="" stroke="rgb(0, 0, 0)" stroke-width="8" fill="rgb(0, 0, 0)" style="transform:scale(0.017,-0.017);"></path></g><g style="transform:translate(193.640625px,96.984375px);"><path d="M604 347L604 406L65 406L65 347ZM604 134L604 193L65 193L65 134Z" stroke="rgb(0, 0, 0)" stroke-width="8" fill="rgb(0, 0, 0)" style="transform:scale(0.017,-0.017);"></path></g><g style="transform:translate(209.640625px,96.984375px);"><path d="" stroke="rgb(0, 0, 0)" stroke-width="8" fill="rgb(0, 0, 0)" style="transform:scale(0.017,-0.017);"></path></g><g><g style="transform:;transform-origin:219.6796875px 77.984375px;"><g><g style="transform:translate(215.4375px,84.984375px);"><path d="M418 -3L418 27L366 30C311 33 301 44 301 96L301 700L60 598L67 548L217 614L217 96C217 44 206 33 152 30L96 27L96 -3C250 0 250 0 261 0C292 0 402 -3 418 -3Z" stroke="rgb(0, 0, 0)" stroke-width="8" fill="rgb(0, 0, 0)" style="transform:scale(0.017,-0.017);"></path></g></g></g><g style="transform:;transform-origin:219.6796875px 102.984375px;"><g><g style="transform:translate(215.4375px,109.984375px);"><path d="M9 1C24 -7 40 -11 52 -11C85 -11 124 18 155 65L231 182L242 113C255 28 278 -11 314 -11C336 -11 368 6 400 35L449 79L440 98C404 68 379 53 363 53C348 53 335 63 325 83C316 102 305 139 300 168L282 269L317 318C364 383 391 406 422 406C438 406 450 398 455 383L469 387L484 472C472 479 463 482 454 482C414 482 374 446 312 354L275 299L269 347C257 446 230 482 171 482C145 482 123 474 114 461L56 378L73 368C103 402 123 416 142 416C175 416 197 375 214 277L225 215L185 153C142 86 108 54 80 54C65 54 54 58 52 63L41 91L21 88C21 53 13 27 9 1Z" stroke="rgb(0, 0, 0)" stroke-width="8" fill="rgb(0, 0, 0)" style="transform:scale(0.017,-0.017);"></path></g></g></g><line style="fill:none;stroke-width:1px;stroke:rgb(0, 0, 0);" x1="215.4375" y1="92.734375" x2="223.921875" y2="92.734375"></line></g><g style="transform:translate(225.640625px,96.984375px);"><path d="" stroke="rgb(0, 0, 0)" stroke-width="8" fill="rgb(0, 0, 0)" style="transform:scale(0.017,-0.017);"></path></g></g><g><g style="transform:translate(215.640625px,126.984375px);"><path d="" stroke="rgb(0, 0, 0)" stroke-width="8" fill="rgb(0, 0, 0)" style="transform:scale(0.017,-0.017);"></path></g></g><g><g style="transform:translate(55.640625px,158.984375px);"><path d="" stroke="rgb(0, 0, 0)" stroke-width="8" fill="rgb(0, 0, 0)" style="transform:scale(0.017,-0.017);"></path></g><g><g style="transform:;transform-origin:156.0703125px 139.984375px;"><g><g style="transform:translate(150.15625px,146.984375px);"><path d="M189 -10C33 -10 -71 155 37 317C135 463 320 483 382 366L439 688C447 695 469 694 475 694C516 694 686 683 707 683C709 683 706 667 703 651C656 651 632 644 625 617C624 613 545 168 516 0L463 0L365 90C314 39 274 -10 189 -10ZM479 615C451 454 398 154 398 152C397 134 445 113 474 144L557 615C554 624 541 632 530 636C501 648 480 616 479 615ZM103 38L165 388C124 364 82 320 64 252C31 149 66 73 103 38ZM148 25C213 19 273 43 340 129L372 307C346 382 287 422 214 398Z" stroke="rgb(0, 0, 0)" stroke-width="8" fill="rgb(0, 0, 0)" style="transform:scale(0.017,-0.017);"></path></g></g></g><g style="transform:;transform-origin:156.0703125px 164.984375px;"><g><g style="transform:translate(146.15625px,171.984375px);"><path d="M189 -10C33 -10 -71 155 37 317C135 463 320 483 382 366L439 688C447 695 469 694 475 694C516 694 686 683 707 683C709 683 706 667 703 651C656 651 632 644 625 617C624 613 545 168 516 0L463 0L365 90C314 39 274 -10 189 -10ZM479 615C451 454 398 154 398 152C397 134 445 113 474 144L557 615C554 624 541 632 530 636C501 648 480 616 479 615ZM103 38L165 388C124 364 82 320 64 252C31 149 66 73 103 38ZM148 25C213 19 273 43 340 129L372 307C346 382 287 422 214 398ZM676 1C691 -7 707 -11 719 -11C752 -11 791 18 822 65L898 182L909 113C922 28 945 -11 981 -11C1003 -11 1035 6 1067 35L1116 79L1107 98C1071 68 1046 53 1030 53C1015 53 1002 63 992 83C983 102 972 139 967 168L949 269L984 318C1031 383 1058 406 1089 406C1105 406 1117 398 1122 383L1136 387L1151 472C1139 479 1130 482 1121 482C1081 482 1041 446 979 354L942 299L936 347C924 446 897 482 838 482C812 482 790 474 781 461L723 378L740 368C770 402 790 416 809 416C842 416 864 375 881 277L892 215L852 153C809 86 775 54 747 54C732 54 721 58 719 63L708 91L688 88C688 53 680 27 676 1Z" stroke="rgb(0, 0, 0)" stroke-width="8" fill="rgb(0, 0, 0)" style="transform:scale(0.017,-0.017);"></path></g></g></g><line style="fill:none;stroke-width:1px;stroke:rgb(0, 0, 0);" x1="146.15625" y1="154.734375" x2="165.984375" y2="154.734375"></line></g><g style="transform:translate(167.640625px,158.984375px);"><path d="M577 111L553 94C500 56 452 36 416 36C369 36 340 73 340 133C340 158 343 185 348 214C365 218 474 248 499 259C584 296 623 342 623 404C623 451 589 482 539 482C471 496 361 423 324 349C294 299 264 180 264 113C264 35 308 -11 380 -11C437 -11 493 17 585 92ZM362 274C379 343 399 386 428 412C446 428 477 440 501 440C530 440 549 420 549 388C549 344 514 297 462 272C434 258 398 247 353 237Z" stroke="rgb(0, 0, 0)" stroke-width="8" fill="rgb(0, 0, 0)" style="transform:scale(0.017,-0.017);"></path></g><g><g style="transform:;transform-origin:181.4765625px 148px;"><g><g style="transform:translate(178.5px,152.9px);"><path d="M9 1C24 -7 40 -11 52 -11C85 -11 124 18 155 65L231 182L242 113C255 28 278 -11 314 -11C336 -11 368 6 400 35L449 79L440 98C404 68 379 53 363 53C348 53 335 63 325 83C316 102 305 139 300 168L282 269L317 318C364 383 391 406 422 406C438 406 450 398 455 383L469 387L484 472C472 479 463 482 454 482C414 482 374 446 312 354L275 299L269 347C257 446 230 482 171 482C145 482 123 474 114 461L56 378L73 368C103 402 123 416 142 416C175 416 197 375 214 277L225 215L185 153C142 86 108 54 80 54C65 54 54 58 52 63L41 91L21 88C21 53 13 27 9 1Z" stroke="rgb(0, 0, 0)" stroke-width="8" fill="rgb(0, 0, 0)" style="transform:scale(0.0119,-0.0119);"></path></g></g></g></g><g style="transform:translate(184.640625px,158.984375px);"><path d="" stroke="rgb(0, 0, 0)" stroke-width="8" fill="rgb(0, 0, 0)" style="transform:scale(0.017,-0.017);"></path></g><g style="transform:translate(193.640625px,158.984375px);"><path d="M604 347L604 406L65 406L65 347ZM604 134L604 193L65 193L65 134Z" stroke="rgb(0, 0, 0)" stroke-width="8" fill="rgb(0, 0, 0)" style="transform:scale(0.017,-0.017);"></path></g><g style="transform:translate(209.640625px,158.984375px);"><path d="M328 111L304 94C251 56 203 36 167 36C120 36 91 73 91 133C91 158 94 185 99 214C116 218 225 248 250 259C335 296 374 342 374 404C374 451 340 482 290 482C222 496 112 423 75 349C45 299 15 180 15 113C15 35 59 -11 131 -11C188 -11 244 17 336 92ZM113 274C130 343 150 386 179 412C197 428 228 440 252 440C281 440 300 420 300 388C300 344 265 297 213 272C185 258 149 247 104 237Z" stroke="rgb(0, 0, 0)" stroke-width="8" fill="rgb(0, 0, 0)" style="transform:scale(0.017,-0.017);"></path></g><g><g style="transform:;transform-origin:219.5859375px 148px;"><g><g style="transform:translate(216.609375px,152.9px);"><path d="M9 1C24 -7 40 -11 52 -11C85 -11 124 18 155 65L231 182L242 113C255 28 278 -11 314 -11C336 -11 368 6 400 35L449 79L440 98C404 68 379 53 363 53C348 53 335 63 325 83C316 102 305 139 300 168L282 269L317 318C364 383 391 406 422 406C438 406 450 398 455 383L469 387L484 472C472 479 463 482 454 482C414 482 374 446 312 354L275 299L269 347C257 446 230 482 171 482C145 482 123 474 114 461L56 378L73 368C103 402 123 416 142 416C175 416 197 375 214 277L225 215L185 153C142 86 108 54 80 54C65 54 54 58 52 63L41 91L21 88C21 53 13 27 9 1Z" stroke="rgb(0, 0, 0)" stroke-width="8" fill="rgb(0, 0, 0)" style="transform:scale(0.0119,-0.0119);"></path></g></g></g></g><g style="transform:translate(222.640625px,158.984375px);"><path d="" stroke="rgb(0, 0, 0)" stroke-width="8" fill="rgb(0, 0, 0)" style="transform:scale(0.017,-0.017);"></path></g></g><g><g style="transform:translate(227.640625px,188.984375px);"><path d="" stroke="rgb(0, 0, 0)" stroke-width="8" fill="rgb(0, 0, 0)" style="transform:scale(0.017,-0.017);"></path></g></g><g><g style="transform:translate(0.640625px,220.984375px);"><path d="" stroke="rgb(0, 0, 0)" stroke-width="8" fill="rgb(0, 0, 0)" style="transform:scale(0.017,-0.017);"></path></g><g><g style="transform:;transform-origin:105.7265625px 201.984375px;"><g><g style="transform:translate(99.8125px,208.984375px);"><path d="M189 -10C33 -10 -71 155 37 317C135 463 320 483 382 366L439 688C447 695 469 694 475 694C516 694 686 683 707 683C709 683 706 667 703 651C656 651 632 644 625 617C624 613 545 168 516 0L463 0L365 90C314 39 274 -10 189 -10ZM479 615C451 454 398 154 398 152C397 134 445 113 474 144L557 615C554 624 541 632 530 636C501 648 480 616 479 615ZM103 38L165 388C124 364 82 320 64 252C31 149 66 73 103 38ZM148 25C213 19 273 43 340 129L372 307C346 382 287 422 214 398Z" stroke="rgb(0, 0, 0)" stroke-width="8" fill="rgb(0, 0, 0)" style="transform:scale(0.017,-0.017);"></path></g></g></g><g style="transform:;transform-origin:105.7265625px 226.984375px;"><g><g style="transform:translate(95.8125px,233.984375px);"><path d="M189 -10C33 -10 -71 155 37 317C135 463 320 483 382 366L439 688C447 695 469 694 475 694C516 694 686 683 707 683C709 683 706 667 703 651C656 651 632 644 625 617C624 613 545 168 516 0L463 0L365 90C314 39 274 -10 189 -10ZM479 615C451 454 398 154 398 152C397 134 445 113 474 144L557 615C554 624 541 632 530 636C501 648 480 616 479 615ZM103 38L165 388C124 364 82 320 64 252C31 149 66 73 103 38ZM148 25C213 19 273 43 340 129L372 307C346 382 287 422 214 398ZM676 1C691 -7 707 -11 719 -11C752 -11 791 18 822 65L898 182L909 113C922 28 945 -11 981 -11C1003 -11 1035 6 1067 35L1116 79L1107 98C1071 68 1046 53 1030 53C1015 53 1002 63 992 83C983 102 972 139 967 168L949 269L984 318C1031 383 1058 406 1089 406C1105 406 1117 398 1122 383L1136 387L1151 472C1139 479 1130 482 1121 482C1081 482 1041 446 979 354L942 299L936 347C924 446 897 482 838 482C812 482 790 474 781 461L723 378L740 368C770 402 790 416 809 416C842 416 864 375 881 277L892 215L852 153C809 86 775 54 747 54C732 54 721 58 719 63L708 91L688 88C688 53 680 27 676 1Z" stroke="rgb(0, 0, 0)" stroke-width="8" fill="rgb(0, 0, 0)" style="transform:scale(0.017,-0.017);"></path></g></g></g><line style="fill:none;stroke-width:1px;stroke:rgb(0, 0, 0);" x1="95.8125" y1="216.734375" x2="115.640625" y2="216.734375"></line></g><g style="transform:translate(117.640625px,220.984375px);"><path d="M843 437L827 437L848 549C864 635 892 673 938 673C968 673 995 658 1010 634L1020 638C1025 654 1035 685 1043 705L1048 720C1032 727 1001 733 978 733C967 733 951 730 943 726C919 715 837 654 814 630C792 608 780 578 769 521L754 442C713 422 693 414 668 405L663 383L744 383L735 327C705 132 668 -54 646 -123C628 -182 598 -213 562 -213C539 -213 528 -206 510 -184L496 -188C492 -211 478 -259 473 -268C482 -273 497 -276 508 -276C549 -276 603 -245 642 -198C713 -114 733 -18 817 383L921 383C925 402 932 425 938 439L934 446C905 439 906 437 843 437Z" stroke="rgb(0, 0, 0)" stroke-width="8" fill="rgb(0, 0, 0)" style="transform:scale(0.017,-0.017);"></path></g><g style="transform:translate(135.140625px,220.984375px);"><path d="M146 266C146 526 243 632 301 700L282 726C225 675 60 542 60 266C60 159 85 58 133 -32C168 -99 200 -138 282 -215L301 -194C255 -137 146 -15 146 266Z" stroke="rgb(0, 0, 0)" stroke-width="8" fill="rgb(0, 0, 0)" style="transform:scale(0.017,-0.017);"></path></g><g style="transform:translate(140.640625px,220.984375px);"><path d="M9 1C24 -7 40 -11 52 -11C85 -11 124 18 155 65L231 182L242 113C255 28 278 -11 314 -11C336 -11 368 6 400 35L449 79L440 98C404 68 379 53 363 53C348 53 335 63 325 83C316 102 305 139 300 168L282 269L317 318C364 383 391 406 422 406C438 406 450 398 455 383L469 387L484 472C472 479 463 482 454 482C414 482 374 446 312 354L275 299L269 347C257 446 230 482 171 482C145 482 123 474 114 461L56 378L73 368C103 402 123 416 142 416C175 416 197 375 214 277L225 215L185 153C142 86 108 54 80 54C65 54 54 58 52 63L41 91L21 88C21 53 13 27 9 1Z" stroke="rgb(0, 0, 0)" stroke-width="8" fill="rgb(0, 0, 0)" style="transform:scale(0.017,-0.017);"></path></g><g style="transform:translate(149.265625px,220.984375px);"><path d="M51 726L32 700C87 636 187 526 187 266C187 -10 83 -131 32 -194L51 -215C104 -165 273 -23 273 265C273 542 108 675 51 726Z" stroke="rgb(0, 0, 0)" stroke-width="8" fill="rgb(0, 0, 0)" style="transform:scale(0.017,-0.017);"></path></g><g style="transform:translate(154.640625px,220.984375px);"><path d="M275 482C208 482 55 419 55 259C55 182 100 136 177 136C185 136 196 136 207 137L166 99C150 84 139 66 139 52C139 42 146 31 160 19C91 -4 -37 -48 -37 -159C-37 -230 33 -276 142 -276C271 -276 384 -204 384 -121C384 -85 363 -49 320 -14L260 35C226 62 213 81 213 100C213 114 228 128 240 146C338 170 409 253 409 342C409 357 406 376 405 380C422 378 430 378 439 378C456 378 466 379 489 382L498 427L495 433C467 426 447 424 393 424C393 425 369 482 275 482ZM176 1L253 -58C299 -94 318 -121 318 -154C318 -206 249 -248 166 -248C84 -248 27 -206 27 -145C27 -43 137 -11 176 1ZM250 448C308 448 337 412 337 341C337 238 289 168 219 168C158 168 126 209 126 288C126 383 177 448 250 448Z" stroke="rgb(0, 0, 0)" stroke-width="8" fill="rgb(0, 0, 0)" style="transform:scale(0.017,-0.017);"></path></g><g style="transform:translate(163.390625px,220.984375px);"><path d="M146 266C146 526 243 632 301 700L282 726C225 675 60 542 60 266C60 159 85 58 133 -32C168 -99 200 -138 282 -215L301 -194C255 -137 146 -15 146 266Z" stroke="rgb(0, 0, 0)" stroke-width="8" fill="rgb(0, 0, 0)" style="transform:scale(0.017,-0.017);"></path></g><g style="transform:translate(168.640625px,220.984375px);"><path d="M9 1C24 -7 40 -11 52 -11C85 -11 124 18 155 65L231 182L242 113C255 28 278 -11 314 -11C336 -11 368 6 400 35L449 79L440 98C404 68 379 53 363 53C348 53 335 63 325 83C316 102 305 139 300 168L282 269L317 318C364 383 391 406 422 406C438 406 450 398 455 383L469 387L484 472C472 479 463 482 454 482C414 482 374 446 312 354L275 299L269 347C257 446 230 482 171 482C145 482 123 474 114 461L56 378L73 368C103 402 123 416 142 416C175 416 197 375 214 277L225 215L185 153C142 86 108 54 80 54C65 54 54 58 52 63L41 91L21 88C21 53 13 27 9 1Z" stroke="rgb(0, 0, 0)" stroke-width="8" fill="rgb(0, 0, 0)" style="transform:scale(0.017,-0.017);"></path></g><g style="transform:translate(177.515625px,220.984375px);"><path d="M51 726L32 700C87 636 187 526 187 266C187 -10 83 -131 32 -194L51 -215C104 -165 273 -23 273 265C273 542 108 675 51 726Z" stroke="rgb(0, 0, 0)" stroke-width="8" fill="rgb(0, 0, 0)" style="transform:scale(0.017,-0.017);"></path></g><g style="transform:translate(183.640625px,220.984375px);"><path d="" stroke="rgb(0, 0, 0)" stroke-width="8" fill="rgb(0, 0, 0)" style="transform:scale(0.017,-0.017);"></path></g><g style="transform:translate(192.640625px,220.984375px);"><path d="M604 347L604 406L65 406L65 347ZM604 134L604 193L65 193L65 134Z" stroke="rgb(0, 0, 0)" stroke-width="8" fill="rgb(0, 0, 0)" style="transform:scale(0.017,-0.017);"></path></g><g style="transform:translate(208.640625px,220.984375px);"><path d="M594 437L578 437L599 549C615 635 643 673 689 673C719 673 746 658 761 634L771 638C776 654 786 685 794 705L799 720C783 727 752 733 729 733C718 733 702 730 694 726C670 715 588 654 565 630C543 608 531 578 520 521L505 442C464 422 444 414 419 405L414 383L495 383L486 327C456 132 419 -54 397 -123C379 -182 349 -213 313 -213C290 -213 279 -206 261 -184L247 -188C243 -211 229 -259 224 -268C233 -273 248 -276 259 -276C300 -276 354 -245 393 -198C464 -114 484 -18 568 383L672 383C676 402 683 425 689 439L685 446C656 439 657 437 594 437Z" stroke="rgb(0, 0, 0)" stroke-width="8" fill="rgb(0, 0, 0)" style="transform:scale(0.017,-0.017);"></path></g><g style="transform:translate(222.3125px,220.984375px);"><path d="M146 266C146 526 243 632 301 700L282 726C225 675 60 542 60 266C60 159 85 58 133 -32C168 -99 200 -138 282 -215L301 -194C255 -137 146 -15 146 266Z" stroke="rgb(0, 0, 0)" stroke-width="8" fill="rgb(0, 0, 0)" style="transform:scale(0.017,-0.017);"></path></g><g style="transform:translate(227.640625px,220.984375px);"><path d="M9 1C24 -7 40 -11 52 -11C85 -11 124 18 155 65L231 182L242 113C255 28 278 -11 314 -11C336 -11 368 6 400 35L449 79L440 98C404 68 379 53 363 53C348 53 335 63 325 83C316 102 305 139 300 168L282 269L317 318C364 383 391 406 422 406C438 406 450 398 455 383L469 387L484 472C472 479 463 482 454 482C414 482 374 446 312 354L275 299L269 347C257 446 230 482 171 482C145 482 123 474 114 461L56 378L73 368C103 402 123 416 142 416C175 416 197 375 214 277L225 215L185 153C142 86 108 54 80 54C65 54 54 58 52 63L41 91L21 88C21 53 13 27 9 1Z" stroke="rgb(0, 0, 0)" stroke-width="8" fill="rgb(0, 0, 0)" style="transform:scale(0.017,-0.017);"></path></g><g style="transform:translate(236.4375px,220.984375px);"><path d="M51 726L32 700C87 636 187 526 187 266C187 -10 83 -131 32 -194L51 -215C104 -165 273 -23 273 265C273 542 108 675 51 726Z" stroke="rgb(0, 0, 0)" stroke-width="8" fill="rgb(0, 0, 0)" style="transform:scale(0.017,-0.017);"></path></g><g style="transform:translate(241.640625px,220.984375px);"><path d="" stroke="rgb(0, 0, 0)" stroke-width="8" fill="rgb(0, 0, 0)" style="transform:scale(0.017,-0.017);"></path></g><g><g style="transform:;transform-origin:257.9140625px 201.984375px;"><g><g style="transform:translate(252px,208.984375px);"><path d="M189 -10C33 -10 -71 155 37 317C135 463 320 483 382 366L439 688C447 695 469 694 475 694C516 694 686 683 707 683C709 683 706 667 703 651C656 651 632 644 625 617C624 613 545 168 516 0L463 0L365 90C314 39 274 -10 189 -10ZM479 615C451 454 398 154 398 152C397 134 445 113 474 144L557 615C554 624 541 632 530 636C501 648 480 616 479 615ZM103 38L165 388C124 364 82 320 64 252C31 149 66 73 103 38ZM148 25C213 19 273 43 340 129L372 307C346 382 287 422 214 398Z" stroke="rgb(0, 0, 0)" stroke-width="8" fill="rgb(0, 0, 0)" style="transform:scale(0.017,-0.017);"></path></g></g></g><g style="transform:;transform-origin:257.9140625px 226.984375px;"><g><g style="transform:translate(248px,233.984375px);"><path d="M189 -10C33 -10 -71 155 37 317C135 463 320 483 382 366L439 688C447 695 469 694 475 694C516 694 686 683 707 683C709 683 706 667 703 651C656 651 632 644 625 617C624 613 545 168 516 0L463 0L365 90C314 39 274 -10 189 -10ZM479 615C451 454 398 154 398 152C397 134 445 113 474 144L557 615C554 624 541 632 530 636C501 648 480 616 479 615ZM103 38L165 388C124 364 82 320 64 252C31 149 66 73 103 38ZM148 25C213 19 273 43 340 129L372 307C346 382 287 422 214 398ZM676 1C691 -7 707 -11 719 -11C752 -11 791 18 822 65L898 182L909 113C922 28 945 -11 981 -11C1003 -11 1035 6 1067 35L1116 79L1107 98C1071 68 1046 53 1030 53C1015 53 1002 63 992 83C983 102 972 139 967 168L949 269L984 318C1031 383 1058 406 1089 406C1105 406 1117 398 1122 383L1136 387L1151 472C1139 479 1130 482 1121 482C1081 482 1041 446 979 354L942 299L936 347C924 446 897 482 838 482C812 482 790 474 781 461L723 378L740 368C770 402 790 416 809 416C842 416 864 375 881 277L892 215L852 153C809 86 775 54 747 54C732 54 721 58 719 63L708 91L688 88C688 53 680 27 676 1Z" stroke="rgb(0, 0, 0)" stroke-width="8" fill="rgb(0, 0, 0)" style="transform:scale(0.017,-0.017);"></path></g></g></g><line style="fill:none;stroke-width:1px;stroke:rgb(0, 0, 0);" x1="248" y1="216.734375" x2="267.828125" y2="216.734375"></line></g><g style="transform:translate(269.640625px,220.984375px);"><path d="M524 482C457 482 304 419 304 259C304 182 349 136 426 136C434 136 445 136 456 137L415 99C399 84 388 66 388 52C388 42 395 31 409 19C340 -4 212 -48 212 -159C212 -230 282 -276 391 -276C520 -276 633 -204 633 -121C633 -85 612 -49 569 -14L509 35C475 62 462 81 462 100C462 114 477 128 489 146C587 170 658 253 658 342C658 357 655 376 654 380C671 378 679 378 688 378C705 378 715 379 738 382L747 427L744 433C716 426 696 424 642 424C642 425 618 482 524 482ZM425 1L502 -58C548 -94 567 -121 567 -154C567 -206 498 -248 415 -248C333 -248 276 -206 276 -145C276 -43 386 -11 425 1ZM499 448C557 448 586 412 586 341C586 238 538 168 468 168C407 168 375 209 375 288C375 383 426 448 499 448Z" stroke="rgb(0, 0, 0)" stroke-width="8" fill="rgb(0, 0, 0)" style="transform:scale(0.017,-0.017);"></path></g><g style="transform:translate(282.21875px,220.984375px);"><path d="M146 266C146 526 243 632 301 700L282 726C225 675 60 542 60 266C60 159 85 58 133 -32C168 -99 200 -138 282 -215L301 -194C255 -137 146 -15 146 266Z" stroke="rgb(0, 0, 0)" stroke-width="8" fill="rgb(0, 0, 0)" style="transform:scale(0.017,-0.017);"></path></g><g style="transform:translate(287.640625px,220.984375px);"><path d="M9 1C24 -7 40 -11 52 -11C85 -11 124 18 155 65L231 182L242 113C255 28 278 -11 314 -11C336 -11 368 6 400 35L449 79L440 98C404 68 379 53 363 53C348 53 335 63 325 83C316 102 305 139 300 168L282 269L317 318C364 383 391 406 422 406C438 406 450 398 455 383L469 387L484 472C472 479 463 482 454 482C414 482 374 446 312 354L275 299L269 347C257 446 230 482 171 482C145 482 123 474 114 461L56 378L73 368C103 402 123 416 142 416C175 416 197 375 214 277L225 215L185 153C142 86 108 54 80 54C65 54 54 58 52 63L41 91L21 88C21 53 13 27 9 1Z" stroke="rgb(0, 0, 0)" stroke-width="8" fill="rgb(0, 0, 0)" style="transform:scale(0.017,-0.017);"></path></g><g style="transform:translate(296.34375px,220.984375px);"><path d="M51 726L32 700C87 636 187 526 187 266C187 -10 83 -131 32 -194L51 -215C104 -165 273 -23 273 265C273 542 108 675 51 726Z" stroke="rgb(0, 0, 0)" stroke-width="8" fill="rgb(0, 0, 0)" style="transform:scale(0.017,-0.017);"></path></g><g style="transform:translate(301.640625px,220.984375px);"><path d="" stroke="rgb(0, 0, 0)" stroke-width="8" fill="rgb(0, 0, 0)" style="transform:scale(0.017,-0.017);"></path></g><g style="transform:translate(309.640625px,220.984375px);"><path d="M604 241L604 300L364 300L364 538L305 538L305 300L65 300L65 241L305 241L305 0L364 0L364 241Z" stroke="rgb(0, 0, 0)" stroke-width="8" fill="rgb(0, 0, 0)" style="transform:scale(0.017,-0.017);"></path></g><g style="transform:translate(323.640625px,220.984375px);"><path d="M524 482C457 482 304 419 304 259C304 182 349 136 426 136C434 136 445 136 456 137L415 99C399 84 388 66 388 52C388 42 395 31 409 19C340 -4 212 -48 212 -159C212 -230 282 -276 391 -276C520 -276 633 -204 633 -121C633 -85 612 -49 569 -14L509 35C475 62 462 81 462 100C462 114 477 128 489 146C587 170 658 253 658 342C658 357 655 376 654 380C671 378 679 378 688 378C705 378 715 379 738 382L747 427L744 433C716 426 696 424 642 424C642 425 618 482 524 482ZM425 1L502 -58C548 -94 567 -121 567 -154C567 -206 498 -248 415 -248C333 -248 276 -206 276 -145C276 -43 386 -11 425 1ZM499 448C557 448 586 412 586 341C586 238 538 168 468 168C407 168 375 209 375 288C375 383 426 448 499 448Z" stroke="rgb(0, 0, 0)" stroke-width="8" fill="rgb(0, 0, 0)" style="transform:scale(0.017,-0.017);"></path></g><g style="transform:translate(336.265625px,220.984375px);"><path d="M146 266C146 526 243 632 301 700L282 726C225 675 60 542 60 266C60 159 85 58 133 -32C168 -99 200 -138 282 -215L301 -194C255 -137 146 -15 146 266Z" stroke="rgb(0, 0, 0)" stroke-width="8" fill="rgb(0, 0, 0)" style="transform:scale(0.017,-0.017);"></path></g><g style="transform:translate(341.640625px,220.984375px);"><path d="M9 1C24 -7 40 -11 52 -11C85 -11 124 18 155 65L231 182L242 113C255 28 278 -11 314 -11C336 -11 368 6 400 35L449 79L440 98C404 68 379 53 363 53C348 53 335 63 325 83C316 102 305 139 300 168L282 269L317 318C364 383 391 406 422 406C438 406 450 398 455 383L469 387L484 472C472 479 463 482 454 482C414 482 374 446 312 354L275 299L269 347C257 446 230 482 171 482C145 482 123 474 114 461L56 378L73 368C103 402 123 416 142 416C175 416 197 375 214 277L225 215L185 153C142 86 108 54 80 54C65 54 54 58 52 63L41 91L21 88C21 53 13 27 9 1Z" stroke="rgb(0, 0, 0)" stroke-width="8" fill="rgb(0, 0, 0)" style="transform:scale(0.017,-0.017);"></path></g><g style="transform:translate(350.390625px,220.984375px);"><path d="M51 726L32 700C87 636 187 526 187 266C187 -10 83 -131 32 -194L51 -215C104 -165 273 -23 273 265C273 542 108 675 51 726Z" stroke="rgb(0, 0, 0)" stroke-width="8" fill="rgb(0, 0, 0)" style="transform:scale(0.017,-0.017);"></path></g><g style="transform:translate(355.640625px,220.984375px);"><path d="" stroke="rgb(0, 0, 0)" stroke-width="8" fill="rgb(0, 0, 0)" style="transform:scale(0.017,-0.017);"></path></g><g><g style="transform:;transform-origin:371.8671875px 201.984375px;"><g><g style="transform:translate(365.953125px,208.984375px);"><path d="M189 -10C33 -10 -71 155 37 317C135 463 320 483 382 366L439 688C447 695 469 694 475 694C516 694 686 683 707 683C709 683 706 667 703 651C656 651 632 644 625 617C624 613 545 168 516 0L463 0L365 90C314 39 274 -10 189 -10ZM479 615C451 454 398 154 398 152C397 134 445 113 474 144L557 615C554 624 541 632 530 636C501 648 480 616 479 615ZM103 38L165 388C124 364 82 320 64 252C31 149 66 73 103 38ZM148 25C213 19 273 43 340 129L372 307C346 382 287 422 214 398Z" stroke="rgb(0, 0, 0)" stroke-width="8" fill="rgb(0, 0, 0)" style="transform:scale(0.017,-0.017);"></path></g></g></g><g style="transform:;transform-origin:371.8671875px 226.984375px;"><g><g style="transform:translate(361.953125px,233.984375px);"><path d="M189 -10C33 -10 -71 155 37 317C135 463 320 483 382 366L439 688C447 695 469 694 475 694C516 694 686 683 707 683C709 683 706 667 703 651C656 651 632 644 625 617C624 613 545 168 516 0L463 0L365 90C314 39 274 -10 189 -10ZM479 615C451 454 398 154 398 152C397 134 445 113 474 144L557 615C554 624 541 632 530 636C501 648 480 616 479 615ZM103 38L165 388C124 364 82 320 64 252C31 149 66 73 103 38ZM148 25C213 19 273 43 340 129L372 307C346 382 287 422 214 398ZM676 1C691 -7 707 -11 719 -11C752 -11 791 18 822 65L898 182L909 113C922 28 945 -11 981 -11C1003 -11 1035 6 1067 35L1116 79L1107 98C1071 68 1046 53 1030 53C1015 53 1002 63 992 83C983 102 972 139 967 168L949 269L984 318C1031 383 1058 406 1089 406C1105 406 1117 398 1122 383L1136 387L1151 472C1139 479 1130 482 1121 482C1081 482 1041 446 979 354L942 299L936 347C924 446 897 482 838 482C812 482 790 474 781 461L723 378L740 368C770 402 790 416 809 416C842 416 864 375 881 277L892 215L852 153C809 86 775 54 747 54C732 54 721 58 719 63L708 91L688 88C688 53 680 27 676 1Z" stroke="rgb(0, 0, 0)" stroke-width="8" fill="rgb(0, 0, 0)" style="transform:scale(0.017,-0.017);"></path></g></g></g><line style="fill:none;stroke-width:1px;stroke:rgb(0, 0, 0);" x1="361.953125" y1="216.734375" x2="381.78125" y2="216.734375"></line></g><g style="transform:translate(383.640625px,220.984375px);"><path d="M594 437L578 437L599 549C615 635 643 673 689 673C719 673 746 658 761 634L771 638C776 654 786 685 794 705L799 720C783 727 752 733 729 733C718 733 702 730 694 726C670 715 588 654 565 630C543 608 531 578 520 521L505 442C464 422 444 414 419 405L414 383L495 383L486 327C456 132 419 -54 397 -123C379 -182 349 -213 313 -213C290 -213 279 -206 261 -184L247 -188C243 -211 229 -259 224 -268C233 -273 248 -276 259 -276C300 -276 354 -245 393 -198C464 -114 484 -18 568 383L672 383C676 402 683 425 689 439L685 446C656 439 657 437 594 437Z" stroke="rgb(0, 0, 0)" stroke-width="8" fill="rgb(0, 0, 0)" style="transform:scale(0.017,-0.017);"></path></g><g style="transform:translate(397.046875px,220.984375px);"><path d="M146 266C146 526 243 632 301 700L282 726C225 675 60 542 60 266C60 159 85 58 133 -32C168 -99 200 -138 282 -215L301 -194C255 -137 146 -15 146 266Z" stroke="rgb(0, 0, 0)" stroke-width="8" fill="rgb(0, 0, 0)" style="transform:scale(0.017,-0.017);"></path></g><g style="transform:translate(402.640625px,220.984375px);"><path d="M9 1C24 -7 40 -11 52 -11C85 -11 124 18 155 65L231 182L242 113C255 28 278 -11 314 -11C336 -11 368 6 400 35L449 79L440 98C404 68 379 53 363 53C348 53 335 63 325 83C316 102 305 139 300 168L282 269L317 318C364 383 391 406 422 406C438 406 450 398 455 383L469 387L484 472C472 479 463 482 454 482C414 482 374 446 312 354L275 299L269 347C257 446 230 482 171 482C145 482 123 474 114 461L56 378L73 368C103 402 123 416 142 416C175 416 197 375 214 277L225 215L185 153C142 86 108 54 80 54C65 54 54 58 52 63L41 91L21 88C21 53 13 27 9 1Z" stroke="rgb(0, 0, 0)" stroke-width="8" fill="rgb(0, 0, 0)" style="transform:scale(0.017,-0.017);"></path></g><g style="transform:translate(411.171875px,220.984375px);"><path d="M51 726L32 700C87 636 187 526 187 266C187 -10 83 -131 32 -194L51 -215C104 -165 273 -23 273 265C273 542 108 675 51 726Z" stroke="rgb(0, 0, 0)" stroke-width="8" fill="rgb(0, 0, 0)" style="transform:scale(0.017,-0.017);"></path></g><g style="transform:translate(416.640625px,220.984375px);"><path d="" stroke="rgb(0, 0, 0)" stroke-width="8" fill="rgb(0, 0, 0)" style="transform:scale(0.017,-0.017);"></path></g></g><g></g><g><g style="transform:translate(69.640625px,306.359375px);"><path d="" stroke="rgb(0, 0, 0)" stroke-width="8" fill="rgb(0, 0, 0)" style="transform:scale(0.017,-0.017);"></path></g><g><g style="transform:;transform-origin:128.1640625px 287.359375px;"><g><g style="transform:translate(122.25px,294.359375px);"><path d="M189 -10C33 -10 -71 155 37 317C135 463 320 483 382 366L439 688C447 695 469 694 475 694C516 694 686 683 707 683C709 683 706 667 703 651C656 651 632 644 625 617C624 613 545 168 516 0L463 0L365 90C314 39 274 -10 189 -10ZM479 615C451 454 398 154 398 152C397 134 445 113 474 144L557 615C554 624 541 632 530 636C501 648 480 616 479 615ZM103 38L165 388C124 364 82 320 64 252C31 149 66 73 103 38ZM148 25C213 19 273 43 340 129L372 307C346 382 287 422 214 398Z" stroke="rgb(0, 0, 0)" stroke-width="8" fill="rgb(0, 0, 0)" style="transform:scale(0.017,-0.017);"></path></g></g></g><g style="transform:;transform-origin:128.1640625px 312.359375px;"><g><g style="transform:translate(118.25px,319.359375px);"><path d="M189 -10C33 -10 -71 155 37 317C135 463 320 483 382 366L439 688C447 695 469 694 475 694C516 694 686 683 707 683C709 683 706 667 703 651C656 651 632 644 625 617C624 613 545 168 516 0L463 0L365 90C314 39 274 -10 189 -10ZM479 615C451 454 398 154 398 152C397 134 445 113 474 144L557 615C554 624 541 632 530 636C501 648 480 616 479 615ZM103 38L165 388C124 364 82 320 64 252C31 149 66 73 103 38ZM148 25C213 19 273 43 340 129L372 307C346 382 287 422 214 398ZM676 1C691 -7 707 -11 719 -11C752 -11 791 18 822 65L898 182L909 113C922 28 945 -11 981 -11C1003 -11 1035 6 1067 35L1116 79L1107 98C1071 68 1046 53 1030 53C1015 53 1002 63 992 83C983 102 972 139 967 168L949 269L984 318C1031 383 1058 406 1089 406C1105 406 1117 398 1122 383L1136 387L1151 472C1139 479 1130 482 1121 482C1081 482 1041 446 979 354L942 299L936 347C924 446 897 482 838 482C812 482 790 474 781 461L723 378L740 368C770 402 790 416 809 416C842 416 864 375 881 277L892 215L852 153C809 86 775 54 747 54C732 54 721 58 719 63L708 91L688 88C688 53 680 27 676 1Z" stroke="rgb(0, 0, 0)" stroke-width="8" fill="rgb(0, 0, 0)" style="transform:scale(0.017,-0.017);"></path></g></g></g><line style="fill:none;stroke-width:1px;stroke:rgb(0, 0, 0);" x1="118.25" y1="302.109375" x2="138.078125" y2="302.109375"></line></g><g style="transform:translate(139.640625px,306.359375px);"><path d="" stroke="rgb(0, 0, 0)" stroke-width="8" fill="rgb(0, 0, 0)" style="transform:scale(0.017,-0.017);"></path></g><g><g style="transform:;transform-origin:164.484375px 286.859375px;"><g><g style="transform:translate(149.90625px,293.359375px);"><path d="M345 437L329 437L350 549C366 635 394 673 440 673C470 673 497 658 512 634L522 638C527 654 537 685 545 705L550 720C534 727 503 733 480 733C469 733 453 730 445 726C421 715 339 654 316 630C294 608 282 578 271 521L256 442C215 422 195 414 170 405L165 383L246 383L237 327C207 132 170 -54 148 -123C130 -182 100 -213 64 -213C41 -213 30 -206 12 -184L-2 -188C-6 -211 -20 -259 -25 -268C-16 -273 -1 -276 10 -276C51 -276 105 -245 144 -198C215 -114 235 -18 319 383L423 383C427 402 434 425 440 439L436 446C407 439 408 437 345 437Z" stroke="rgb(0, 0, 0)" stroke-width="8" fill="rgb(0, 0, 0)" style="transform:scale(0.017,-0.017);"></path></g><g style="transform:translate(159.265625px,293.359375px);"><path d="M146 266C146 526 243 632 301 700L282 726C225 675 60 542 60 266C60 159 85 58 133 -32C168 -99 200 -138 282 -215L301 -194C255 -137 146 -15 146 266Z" stroke="rgb(0, 0, 0)" stroke-width="8" fill="rgb(0, 0, 0)" style="transform:scale(0.017,-0.017);"></path></g><g style="transform:translate(164.90625px,293.359375px);"><path d="M9 1C24 -7 40 -11 52 -11C85 -11 124 18 155 65L231 182L242 113C255 28 278 -11 314 -11C336 -11 368 6 400 35L449 79L440 98C404 68 379 53 363 53C348 53 335 63 325 83C316 102 305 139 300 168L282 269L317 318C364 383 391 406 422 406C438 406 450 398 455 383L469 387L484 472C472 479 463 482 454 482C414 482 374 446 312 354L275 299L269 347C257 446 230 482 171 482C145 482 123 474 114 461L56 378L73 368C103 402 123 416 142 416C175 416 197 375 214 277L225 215L185 153C142 86 108 54 80 54C65 54 54 58 52 63L41 91L21 88C21 53 13 27 9 1Z" stroke="rgb(0, 0, 0)" stroke-width="8" fill="rgb(0, 0, 0)" style="transform:scale(0.017,-0.017);"></path></g><g style="transform:translate(173.390625px,293.359375px);"><path d="M51 726L32 700C87 636 187 526 187 266C187 -10 83 -131 32 -194L51 -215C104 -165 273 -23 273 265C273 542 108 675 51 726Z" stroke="rgb(0, 0, 0)" stroke-width="8" fill="rgb(0, 0, 0)" style="transform:scale(0.017,-0.017);"></path></g></g></g><g style="transform:;transform-origin:164.484375px 312.859375px;"><g><g style="transform:translate(149.90625px,319.359375px);"><path d="M275 482C208 482 55 419 55 259C55 182 100 136 177 136C185 136 196 136 207 137L166 99C150 84 139 66 139 52C139 42 146 31 160 19C91 -4 -37 -48 -37 -159C-37 -230 33 -276 142 -276C271 -276 384 -204 384 -121C384 -85 363 -49 320 -14L260 35C226 62 213 81 213 100C213 114 228 128 240 146C338 170 409 253 409 342C409 357 406 376 405 380C422 378 430 378 439 378C456 378 466 379 489 382L498 427L495 433C467 426 447 424 393 424C393 425 369 482 275 482ZM176 1L253 -58C299 -94 318 -121 318 -154C318 -206 249 -248 166 -248C84 -248 27 -206 27 -145C27 -43 137 -11 176 1ZM250 448C308 448 337 412 337 341C337 238 289 168 219 168C158 168 126 209 126 288C126 383 177 448 250 448Z" stroke="rgb(0, 0, 0)" stroke-width="8" fill="rgb(0, 0, 0)" style="transform:scale(0.017,-0.017);"></path></g><g style="transform:translate(158.828125px,319.359375px);"><path d="M146 266C146 526 243 632 301 700L282 726C225 675 60 542 60 266C60 159 85 58 133 -32C168 -99 200 -138 282 -215L301 -194C255 -137 146 -15 146 266Z" stroke="rgb(0, 0, 0)" stroke-width="8" fill="rgb(0, 0, 0)" style="transform:scale(0.017,-0.017);"></path></g><g style="transform:translate(164.90625px,319.359375px);"><path d="M9 1C24 -7 40 -11 52 -11C85 -11 124 18 155 65L231 182L242 113C255 28 278 -11 314 -11C336 -11 368 6 400 35L449 79L440 98C404 68 379 53 363 53C348 53 335 63 325 83C316 102 305 139 300 168L282 269L317 318C364 383 391 406 422 406C438 406 450 398 455 383L469 387L484 472C472 479 463 482 454 482C414 482 374 446 312 354L275 299L269 347C257 446 230 482 171 482C145 482 123 474 114 461L56 378L73 368C103 402 123 416 142 416C175 416 197 375 214 277L225 215L185 153C142 86 108 54 80 54C65 54 54 58 52 63L41 91L21 88C21 53 13 27 9 1Z" stroke="rgb(0, 0, 0)" stroke-width="8" fill="rgb(0, 0, 0)" style="transform:scale(0.017,-0.017);"></path></g><g style="transform:translate(172.953125px,319.359375px);"><path d="M51 726L32 700C87 636 187 526 187 266C187 -10 83 -131 32 -194L51 -215C104 -165 273 -23 273 265C273 542 108 675 51 726Z" stroke="rgb(0, 0, 0)" stroke-width="8" fill="rgb(0, 0, 0)" style="transform:scale(0.017,-0.017);"></path></g></g></g><line style="fill:none;stroke-width:1px;stroke:rgb(0, 0, 0);" x1="149.90625" y1="302.109375" x2="179.0625" y2="302.109375"></line></g><g style="transform:translate(180.640625px,306.359375px);"><path d="" stroke="rgb(0, 0, 0)" stroke-width="8" fill="rgb(0, 0, 0)" style="transform:scale(0.017,-0.017);"></path></g><g style="transform:translate(189.640625px,306.359375px);"><path d="M604 347L604 406L65 406L65 347ZM604 134L604 193L65 193L65 134Z" stroke="rgb(0, 0, 0)" stroke-width="8" fill="rgb(0, 0, 0)" style="transform:scale(0.017,-0.017);"></path></g><g><g style="transform:;transform-origin:317.28125px 276.171875px;"><g><g><svg x="208.515625" style="overflow:visible;" y="256.671875" height="39" width="8.5"><path d=" M 6.61 1.70 q 0.00 -0.12 -0.10 -0.12 q -0.03 0.00 -0.10 0.03 q -1.26 0.80 -2.19 1.88 t -1.72 2.71 t -1.19 4.02 t -0.41 5.48 v 0.90 h 1.68 v -0.90 q 0.00 -1.73 0.05 -3.01 t 0.28 -2.96 t 0.62 -2.94 t 1.14 -2.52 t 1.79 -2.15 q 0.15 -0.14 0.15 -0.43 z   M 0.90 16.61 v 5.78 h 1.68 v -5.78 z" style="fill:rgb(0, 0, 0);stroke-width:1px;stroke:none;"></path><path d=" M 6.61 37.30 q 0.00 0.12 -0.10 0.12 q -0.03 0.00 -0.10 -0.03 q -1.26 -0.80 -2.19 -1.88 t -1.72 -2.71 t -1.19 -4.02 t -0.41 -5.48 v -0.90 h 1.68 v 0.90 q 0.00 1.73 0.05 3.01 t 0.28 2.96 t 0.62 2.94 t 1.14 2.52 t 1.79 2.15 q 0.15 0.14 0.15 0.43 z" style="fill:rgb(0, 0, 0);stroke-width:1px;stroke:none;"></path></svg></g><g style="transform:translate(215px,281.671875px);"><path d="" stroke="rgb(0, 0, 0)" stroke-width="8" fill="rgb(0, 0, 0)" style="transform:scale(0.017,-0.017);"></path></g><g><g style="transform:;transform-origin:228.25px 265.546875px;"><g><g style="transform:translate(223.8125px,270.671875px);"><path d="M189 -10C33 -10 -71 155 37 317C135 463 320 483 382 366L439 688C447 695 469 694 475 694C516 694 686 683 707 683C709 683 706 667 703 651C656 651 632 644 625 617C624 613 545 168 516 0L463 0L365 90C314 39 274 -10 189 -10ZM479 615C451 454 398 154 398 152C397 134 445 113 474 144L557 615C554 624 541 632 530 636C501 648 480 616 479 615ZM103 38L165 388C124 364 82 320 64 252C31 149 66 73 103 38ZM148 25C213 19 273 43 340 129L372 307C346 382 287 422 214 398Z" stroke="rgb(0, 0, 0)" stroke-width="8" fill="rgb(0, 0, 0)" style="transform:scale(0.01275,-0.01275);"></path></g></g></g><g style="transform:;transform-origin:228.25px 285.171875px;"><g><g style="transform:translate(220.8125px,289.921875px);"><path d="M189 -10C33 -10 -71 155 37 317C135 463 320 483 382 366L439 688C447 695 469 694 475 694C516 694 686 683 707 683C709 683 706 667 703 651C656 651 632 644 625 617C624 613 545 168 516 0L463 0L365 90C314 39 274 -10 189 -10ZM479 615C451 454 398 154 398 152C397 134 445 113 474 144L557 615C554 624 541 632 530 636C501 648 480 616 479 615ZM103 38L165 388C124 364 82 320 64 252C31 149 66 73 103 38ZM148 25C213 19 273 43 340 129L372 307C346 382 287 422 214 398ZM676 1C691 -7 707 -11 719 -11C752 -11 791 18 822 65L898 182L909 113C922 28 945 -11 981 -11C1003 -11 1035 6 1067 35L1116 79L1107 98C1071 68 1046 53 1030 53C1015 53 1002 63 992 83C983 102 972 139 967 168L949 269L984 318C1031 383 1058 406 1089 406C1105 406 1117 398 1122 383L1136 387L1151 472C1139 479 1130 482 1121 482C1081 482 1041 446 979 354L942 299L936 347C924 446 897 482 838 482C812 482 790 474 781 461L723 378L740 368C770 402 790 416 809 416C842 416 864 375 881 277L892 215L852 153C809 86 775 54 747 54C732 54 721 58 719 63L708 91L688 88C688 53 680 27 676 1Z" stroke="rgb(0, 0, 0)" stroke-width="8" fill="rgb(0, 0, 0)" style="transform:scale(0.01275,-0.01275);"></path></g></g></g><line style="fill:none;stroke-width:1px;stroke:rgb(0, 0, 0);" x1="220.8125" y1="277.21875" x2="235.6875" y2="277.21875"></line></g><g style="transform:translate(237px,281.671875px);"><path d="M594 437L578 437L599 549C615 635 643 673 689 673C719 673 746 658 761 634L771 638C776 654 786 685 794 705L799 720C783 727 752 733 729 733C718 733 702 730 694 726C670 715 588 654 565 630C543 608 531 578 520 521L505 442C464 422 444 414 419 405L414 383L495 383L486 327C456 132 419 -54 397 -123C379 -182 349 -213 313 -213C290 -213 279 -206 261 -184L247 -188C243 -211 229 -259 224 -268C233 -273 248 -276 259 -276C300 -276 354 -245 393 -198C464 -114 484 -18 568 383L672 383C676 402 683 425 689 439L685 446C656 439 657 437 594 437Z" stroke="rgb(0, 0, 0)" stroke-width="8" fill="rgb(0, 0, 0)" style="transform:scale(0.017,-0.017);"></path></g><g style="transform:translate(250.53125px,281.671875px);"><path d="M146 266C146 526 243 632 301 700L282 726C225 675 60 542 60 266C60 159 85 58 133 -32C168 -99 200 -138 282 -215L301 -194C255 -137 146 -15 146 266Z" stroke="rgb(0, 0, 0)" stroke-width="8" fill="rgb(0, 0, 0)" style="transform:scale(0.017,-0.017);"></path></g><g style="transform:translate(256px,281.671875px);"><path d="M9 1C24 -7 40 -11 52 -11C85 -11 124 18 155 65L231 182L242 113C255 28 278 -11 314 -11C336 -11 368 6 400 35L449 79L440 98C404 68 379 53 363 53C348 53 335 63 325 83C316 102 305 139 300 168L282 269L317 318C364 383 391 406 422 406C438 406 450 398 455 383L469 387L484 472C472 479 463 482 454 482C414 482 374 446 312 354L275 299L269 347C257 446 230 482 171 482C145 482 123 474 114 461L56 378L73 368C103 402 123 416 142 416C175 416 197 375 214 277L225 215L185 153C142 86 108 54 80 54C65 54 54 58 52 63L41 91L21 88C21 53 13 27 9 1Z" stroke="rgb(0, 0, 0)" stroke-width="8" fill="rgb(0, 0, 0)" style="transform:scale(0.017,-0.017);"></path></g><g style="transform:translate(264.65625px,281.671875px);"><path d="M51 726L32 700C87 636 187 526 187 266C187 -10 83 -131 32 -194L51 -215C104 -165 273 -23 273 265C273 542 108 675 51 726Z" stroke="rgb(0, 0, 0)" stroke-width="8" fill="rgb(0, 0, 0)" style="transform:scale(0.017,-0.017);"></path></g><g style="transform:translate(270px,281.671875px);"><path d="" stroke="rgb(0, 0, 0)" stroke-width="8" fill="rgb(0, 0, 0)" style="transform:scale(0.017,-0.017);"></path></g><g><svg x="272.84375" style="overflow:visible;" y="256.671875" height="39" width="8.5"><path d=" M 1.19 1.70 q 0.00 -0.12 0.10 -0.12 q 0.03 0.00 0.10 0.03 q 1.26 0.80 2.19 1.88 t 1.72 2.71 t 1.19 4.02 t 0.41 5.48 v 0.90 h -1.68 v -0.90 q 0.00 -1.73 -0.05 -3.01 t -0.28 -2.96 t -0.62 -2.94 t -1.14 -2.52 t -1.79 -2.15 q -0.15 -0.14 -0.15 -0.43 z  M 6.90 16.61 v 5.78 h -1.68 v -5.78 z" style="fill:rgb(0, 0, 0);stroke-width:1px;stroke:none;"></path><path d=" M 1.19 37.30 q 0.00 0.12 0.10 0.12 q 0.03 0.00 0.10 -0.03 q 1.26 -0.80 2.19 -1.88 t 1.72 -2.71 t 1.19 -4.02 t 0.41 -5.48 v -0.90 h -1.68 v 0.90 q 0.00 1.73 -0.05 3.01 t -0.28 2.96 t -0.62 2.94 t -1.14 2.52 t -1.79 2.15 q -0.15 0.14 -0.15 0.43 z" style="fill:rgb(0, 0, 0);stroke-width:1px;stroke:none;"></path></svg></g><g style="transform:translate(281px,281.671875px);"><path d="M773 482C706 482 553 419 553 259C553 182 598 136 675 136C683 136 694 136 705 137L664 99C648 84 637 66 637 52C637 42 644 31 658 19C589 -4 461 -48 461 -159C461 -230 531 -276 640 -276C769 -276 882 -204 882 -121C882 -85 861 -49 818 -14L758 35C724 62 711 81 711 100C711 114 726 128 738 146C836 170 907 253 907 342C907 357 904 376 903 380C920 378 928 378 937 378C954 378 964 379 987 382L996 427L993 433C965 426 945 424 891 424C891 425 867 482 773 482ZM674 1L751 -58C797 -94 816 -121 816 -154C816 -206 747 -248 664 -248C582 -248 525 -206 525 -145C525 -43 635 -11 674 1ZM748 448C806 448 835 412 835 341C835 238 787 168 717 168C656 168 624 209 624 288C624 383 675 448 748 448Z" stroke="rgb(0, 0, 0)" stroke-width="8" fill="rgb(0, 0, 0)" style="transform:scale(0.017,-0.017);"></path></g><g style="transform:translate(298.28125px,281.671875px);"><path d="M146 266C146 526 243 632 301 700L282 726C225 675 60 542 60 266C60 159 85 58 133 -32C168 -99 200 -138 282 -215L301 -194C255 -137 146 -15 146 266Z" stroke="rgb(0, 0, 0)" stroke-width="8" fill="rgb(0, 0, 0)" style="transform:scale(0.017,-0.017);"></path></g><g style="transform:translate(304px,281.671875px);"><path d="M9 1C24 -7 40 -11 52 -11C85 -11 124 18 155 65L231 182L242 113C255 28 278 -11 314 -11C336 -11 368 6 400 35L449 79L440 98C404 68 379 53 363 53C348 53 335 63 325 83C316 102 305 139 300 168L282 269L317 318C364 383 391 406 422 406C438 406 450 398 455 383L469 387L484 472C472 479 463 482 454 482C414 482 374 446 312 354L275 299L269 347C257 446 230 482 171 482C145 482 123 474 114 461L56 378L73 368C103 402 123 416 142 416C175 416 197 375 214 277L225 215L185 153C142 86 108 54 80 54C65 54 54 58 52 63L41 91L21 88C21 53 13 27 9 1Z" stroke="rgb(0, 0, 0)" stroke-width="8" fill="rgb(0, 0, 0)" style="transform:scale(0.017,-0.017);"></path></g><g style="transform:translate(312.40625px,281.671875px);"><path d="M51 726L32 700C87 636 187 526 187 266C187 -10 83 -131 32 -194L51 -215C104 -165 273 -23 273 265C273 542 108 675 51 726Z" stroke="rgb(0, 0, 0)" stroke-width="8" fill="rgb(0, 0, 0)" style="transform:scale(0.017,-0.017);"></path></g><g style="transform:translate(321px,281.671875px);"><path d="M555 243L555 299L51 299L51 243Z" stroke="rgb(0, 0, 0)" stroke-width="8" fill="rgb(0, 0, 0)" style="transform:scale(0.017,-0.017);"></path></g><g style="transform:translate(334px,281.671875px);"><path d="M594 437L578 437L599 549C615 635 643 673 689 673C719 673 746 658 761 634L771 638C776 654 786 685 794 705L799 720C783 727 752 733 729 733C718 733 702 730 694 726C670 715 588 654 565 630C543 608 531 578 520 521L505 442C464 422 444 414 419 405L414 383L495 383L486 327C456 132 419 -54 397 -123C379 -182 349 -213 313 -213C290 -213 279 -206 261 -184L247 -188C243 -211 229 -259 224 -268C233 -273 248 -276 259 -276C300 -276 354 -245 393 -198C464 -114 484 -18 568 383L672 383C676 402 683 425 689 439L685 446C656 439 657 437 594 437Z" stroke="rgb(0, 0, 0)" stroke-width="8" fill="rgb(0, 0, 0)" style="transform:scale(0.017,-0.017);"></path></g><g style="transform:translate(347.921875px,281.671875px);"><path d="M146 266C146 526 243 632 301 700L282 726C225 675 60 542 60 266C60 159 85 58 133 -32C168 -99 200 -138 282 -215L301 -194C255 -137 146 -15 146 266Z" stroke="rgb(0, 0, 0)" stroke-width="8" fill="rgb(0, 0, 0)" style="transform:scale(0.017,-0.017);"></path></g><g style="transform:translate(354px,281.671875px);"><path d="M9 1C24 -7 40 -11 52 -11C85 -11 124 18 155 65L231 182L242 113C255 28 278 -11 314 -11C336 -11 368 6 400 35L449 79L440 98C404 68 379 53 363 53C348 53 335 63 325 83C316 102 305 139 300 168L282 269L317 318C364 383 391 406 422 406C438 406 450 398 455 383L469 387L484 472C472 479 463 482 454 482C414 482 374 446 312 354L275 299L269 347C257 446 230 482 171 482C145 482 123 474 114 461L56 378L73 368C103 402 123 416 142 416C175 416 197 375 214 277L225 215L185 153C142 86 108 54 80 54C65 54 54 58 52 63L41 91L21 88C21 53 13 27 9 1Z" stroke="rgb(0, 0, 0)" stroke-width="8" fill="rgb(0, 0, 0)" style="transform:scale(0.017,-0.017);"></path></g><g style="transform:translate(362.046875px,281.671875px);"><path d="M51 726L32 700C87 636 187 526 187 266C187 -10 83 -131 32 -194L51 -215C104 -165 273 -23 273 265C273 542 108 675 51 726Z" stroke="rgb(0, 0, 0)" stroke-width="8" fill="rgb(0, 0, 0)" style="transform:scale(0.017,-0.017);"></path></g><g style="transform:translate(368px,281.671875px);"><path d="" stroke="rgb(0, 0, 0)" stroke-width="8" fill="rgb(0, 0, 0)" style="transform:scale(0.017,-0.017);"></path></g><g><g style="transform:;transform-origin:384.859375px 265.546875px;"><g><g style="transform:translate(380.421875px,270.671875px);"><path d="M189 -10C33 -10 -71 155 37 317C135 463 320 483 382 366L439 688C447 695 469 694 475 694C516 694 686 683 707 683C709 683 706 667 703 651C656 651 632 644 625 617C624 613 545 168 516 0L463 0L365 90C314 39 274 -10 189 -10ZM479 615C451 454 398 154 398 152C397 134 445 113 474 144L557 615C554 624 541 632 530 636C501 648 480 616 479 615ZM103 38L165 388C124 364 82 320 64 252C31 149 66 73 103 38ZM148 25C213 19 273 43 340 129L372 307C346 382 287 422 214 398Z" stroke="rgb(0, 0, 0)" stroke-width="8" fill="rgb(0, 0, 0)" style="transform:scale(0.01275,-0.01275);"></path></g></g></g><g style="transform:;transform-origin:384.859375px 285.171875px;"><g><g style="transform:translate(377.421875px,289.921875px);"><path d="M189 -10C33 -10 -71 155 37 317C135 463 320 483 382 366L439 688C447 695 469 694 475 694C516 694 686 683 707 683C709 683 706 667 703 651C656 651 632 644 625 617C624 613 545 168 516 0L463 0L365 90C314 39 274 -10 189 -10ZM479 615C451 454 398 154 398 152C397 134 445 113 474 144L557 615C554 624 541 632 530 636C501 648 480 616 479 615ZM103 38L165 388C124 364 82 320 64 252C31 149 66 73 103 38ZM148 25C213 19 273 43 340 129L372 307C346 382 287 422 214 398ZM676 1C691 -7 707 -11 719 -11C752 -11 791 18 822 65L898 182L909 113C922 28 945 -11 981 -11C1003 -11 1035 6 1067 35L1116 79L1107 98C1071 68 1046 53 1030 53C1015 53 1002 63 992 83C983 102 972 139 967 168L949 269L984 318C1031 383 1058 406 1089 406C1105 406 1117 398 1122 383L1136 387L1151 472C1139 479 1130 482 1121 482C1081 482 1041 446 979 354L942 299L936 347C924 446 897 482 838 482C812 482 790 474 781 461L723 378L740 368C770 402 790 416 809 416C842 416 864 375 881 277L892 215L852 153C809 86 775 54 747 54C732 54 721 58 719 63L708 91L688 88C688 53 680 27 676 1Z" stroke="rgb(0, 0, 0)" stroke-width="8" fill="rgb(0, 0, 0)" style="transform:scale(0.01275,-0.01275);"></path></g></g></g><line style="fill:none;stroke-width:1px;stroke:rgb(0, 0, 0);" x1="377.421875" y1="277.21875" x2="392.296875" y2="277.21875"></line></g><g style="transform:translate(394px,281.671875px);"><path d="M524 482C457 482 304 419 304 259C304 182 349 136 426 136C434 136 445 136 456 137L415 99C399 84 388 66 388 52C388 42 395 31 409 19C340 -4 212 -48 212 -159C212 -230 282 -276 391 -276C520 -276 633 -204 633 -121C633 -85 612 -49 569 -14L509 35C475 62 462 81 462 100C462 114 477 128 489 146C587 170 658 253 658 342C658 357 655 376 654 380C671 378 679 378 688 378C705 378 715 379 738 382L747 427L744 433C716 426 696 424 642 424C642 425 618 482 524 482ZM425 1L502 -58C548 -94 567 -121 567 -154C567 -206 498 -248 415 -248C333 -248 276 -206 276 -145C276 -43 386 -11 425 1ZM499 448C557 448 586 412 586 341C586 238 538 168 468 168C407 168 375 209 375 288C375 383 426 448 499 448Z" stroke="rgb(0, 0, 0)" stroke-width="8" fill="rgb(0, 0, 0)" style="transform:scale(0.017,-0.017);"></path></g><g style="transform:translate(406.265625px,281.671875px);"><path d="M146 266C146 526 243 632 301 700L282 726C225 675 60 542 60 266C60 159 85 58 133 -32C168 -99 200 -138 282 -215L301 -194C255 -137 146 -15 146 266Z" stroke="rgb(0, 0, 0)" stroke-width="8" fill="rgb(0, 0, 0)" style="transform:scale(0.017,-0.017);"></path></g><g style="transform:translate(412px,281.671875px);"><path d="M9 1C24 -7 40 -11 52 -11C85 -11 124 18 155 65L231 182L242 113C255 28 278 -11 314 -11C336 -11 368 6 400 35L449 79L440 98C404 68 379 53 363 53C348 53 335 63 325 83C316 102 305 139 300 168L282 269L317 318C364 383 391 406 422 406C438 406 450 398 455 383L469 387L484 472C472 479 463 482 454 482C414 482 374 446 312 354L275 299L269 347C257 446 230 482 171 482C145 482 123 474 114 461L56 378L73 368C103 402 123 416 142 416C175 416 197 375 214 277L225 215L185 153C142 86 108 54 80 54C65 54 54 58 52 63L41 91L21 88C21 53 13 27 9 1Z" stroke="rgb(0, 0, 0)" stroke-width="8" fill="rgb(0, 0, 0)" style="transform:scale(0.017,-0.017);"></path></g><g style="transform:translate(420.390625px,281.671875px);"><path d="M51 726L32 700C87 636 187 526 187 266C187 -10 83 -131 32 -194L51 -215C104 -165 273 -23 273 265C273 542 108 675 51 726Z" stroke="rgb(0, 0, 0)" stroke-width="8" fill="rgb(0, 0, 0)" style="transform:scale(0.017,-0.017);"></path></g></g></g><g style="transform:;transform-origin:317.28125px 313.8515625px;"><g><g style="transform:translate(300px,321.34375px);"><path d="M275 482C208 482 55 419 55 259C55 182 100 136 177 136C185 136 196 136 207 137L166 99C150 84 139 66 139 52C139 42 146 31 160 19C91 -4 -37 -48 -37 -159C-37 -230 33 -276 142 -276C271 -276 384 -204 384 -121C384 -85 363 -49 320 -14L260 35C226 62 213 81 213 100C213 114 228 128 240 146C338 170 409 253 409 342C409 357 406 376 405 380C422 378 430 378 439 378C456 378 466 379 489 382L498 427L495 433C467 426 447 424 393 424C393 425 369 482 275 482ZM176 1L253 -58C299 -94 318 -121 318 -154C318 -206 249 -248 166 -248C84 -248 27 -206 27 -145C27 -43 137 -11 176 1ZM250 448C308 448 337 412 337 341C337 238 289 168 219 168C158 168 126 209 126 288C126 383 177 448 250 448Z" stroke="rgb(0, 0, 0)" stroke-width="8" fill="rgb(0, 0, 0)" style="transform:scale(0.017,-0.017);"></path></g><g style="transform:translate(308.640625px,321.34375px);"><path d="M146 266C146 526 243 632 301 700L282 726C225 675 60 542 60 266C60 159 85 58 133 -32C168 -99 200 -138 282 -215L301 -194C255 -137 146 -15 146 266Z" stroke="rgb(0, 0, 0)" stroke-width="8" fill="rgb(0, 0, 0)" style="transform:scale(0.017,-0.017);"></path></g><g style="transform:translate(314px,321.34375px);"><path d="M9 1C24 -7 40 -11 52 -11C85 -11 124 18 155 65L231 182L242 113C255 28 278 -11 314 -11C336 -11 368 6 400 35L449 79L440 98C404 68 379 53 363 53C348 53 335 63 325 83C316 102 305 139 300 168L282 269L317 318C364 383 391 406 422 406C438 406 450 398 455 383L469 387L484 472C472 479 463 482 454 482C414 482 374 446 312 354L275 299L269 347C257 446 230 482 171 482C145 482 123 474 114 461L56 378L73 368C103 402 123 416 142 416C175 416 197 375 214 277L225 215L185 153C142 86 108 54 80 54C65 54 54 58 52 63L41 91L21 88C21 53 13 27 9 1Z" stroke="rgb(0, 0, 0)" stroke-width="8" fill="rgb(0, 0, 0)" style="transform:scale(0.017,-0.017);"></path></g><g style="transform:translate(322.765625px,321.34375px);"><path d="M51 726L32 700C87 636 187 526 187 266C187 -10 83 -131 32 -194L51 -215C104 -165 273 -23 273 265C273 542 108 675 51 726Z" stroke="rgb(0, 0, 0)" stroke-width="8" fill="rgb(0, 0, 0)" style="transform:scale(0.017,-0.017);"></path></g><g><g style="transform:;transform-origin:331.3984375px 309.859375px;"><g><g style="transform:translate(328.421875px,314.259375px);"><path d="M16 23L16 -3C203 -3 203 0 239 0C275 0 275 -3 468 -3L468 82C353 77 307 81 122 77L304 270C401 373 431 428 431 503C431 618 353 689 226 689C154 689 105 669 56 619L39 483L68 483L81 529C97 587 133 612 200 612C286 612 341 558 341 473C341 398 299 324 186 204Z" stroke="rgb(0, 0, 0)" stroke-width="8" fill="rgb(0, 0, 0)" style="transform:scale(0.0119,-0.0119);"></path></g></g></g></g></g></g><line style="fill:none;stroke-width:1px;stroke:rgb(0, 0, 0);" x1="220.8125" y1="277.21875" x2="235.6875" y2="277.21875"></line></g><g style="transform:translate(428.640625px,306.359375px);"><path d="" stroke="rgb(0, 0, 0)" stroke-width="8" fill="rgb(0, 0, 0)" style="transform:scale(0.017,-0.017);"></path></g></g><g></g><g><g style="transform:translate(189.640625px,378.328125px);"><path d="M604 347L604 406L65 406L65 347ZM604 134L604 193L65 193L65 134Z" stroke="rgb(0, 0, 0)" stroke-width="8" fill="rgb(0, 0, 0)" style="transform:scale(0.017,-0.017);"></path></g><g style="transform:translate(205.640625px,378.328125px);"><path d="" stroke="rgb(0, 0, 0)" stroke-width="8" fill="rgb(0, 0, 0)" style="transform:scale(0.017,-0.017);"></path></g><g><g style="transform:;transform-origin:289.4140625px 357.8359375px;"><g><g style="transform:translate(211.671875px,365.328125px);"><path d="M345 437L329 437L350 549C366 635 394 673 440 673C470 673 497 658 512 634L522 638C527 654 537 685 545 705L550 720C534 727 503 733 480 733C469 733 453 730 445 726C421 715 339 654 316 630C294 608 282 578 271 521L256 442C215 422 195 414 170 405L165 383L246 383L237 327C207 132 170 -54 148 -123C130 -182 100 -213 64 -213C41 -213 30 -206 12 -184L-2 -188C-6 -211 -20 -259 -25 -268C-16 -273 -1 -276 10 -276C51 -276 105 -245 144 -198C215 -114 235 -18 319 383L423 383C427 402 434 425 440 439L436 446C407 439 408 437 345 437Z" stroke="rgb(0, 0, 0)" stroke-width="8" fill="rgb(0, 0, 0)" style="transform:scale(0.017,-0.017);"></path></g><g><g style="transform:;transform-origin:223.1328125px 353.84375px;"><g><g style="transform:translate(221.484375px,358.24375px);"><path d="M174 685C117 612 79 545 45 459L58 446C94 458 104 461 155 476C161 555 185 623 233 699L218 709Z" stroke="rgb(0, 0, 0)" stroke-width="8" fill="rgb(0, 0, 0)" style="transform:scale(0.0119,-0.0119);"></path></g></g></g></g><g style="transform:translate(224.78125px,365.328125px);"><path d="M146 266C146 526 243 632 301 700L282 726C225 675 60 542 60 266C60 159 85 58 133 -32C168 -99 200 -138 282 -215L301 -194C255 -137 146 -15 146 266Z" stroke="rgb(0, 0, 0)" stroke-width="8" fill="rgb(0, 0, 0)" style="transform:scale(0.017,-0.017);"></path></g><g style="transform:translate(230.671875px,365.328125px);"><path d="M9 1C24 -7 40 -11 52 -11C85 -11 124 18 155 65L231 182L242 113C255 28 278 -11 314 -11C336 -11 368 6 400 35L449 79L440 98C404 68 379 53 363 53C348 53 335 63 325 83C316 102 305 139 300 168L282 269L317 318C364 383 391 406 422 406C438 406 450 398 455 383L469 387L484 472C472 479 463 482 454 482C414 482 374 446 312 354L275 299L269 347C257 446 230 482 171 482C145 482 123 474 114 461L56 378L73 368C103 402 123 416 142 416C175 416 197 375 214 277L225 215L185 153C142 86 108 54 80 54C65 54 54 58 52 63L41 91L21 88C21 53 13 27 9 1Z" stroke="rgb(0, 0, 0)" stroke-width="8" fill="rgb(0, 0, 0)" style="transform:scale(0.017,-0.017);"></path></g><g style="transform:translate(238.90625px,365.328125px);"><path d="M51 726L32 700C87 636 187 526 187 266C187 -10 83 -131 32 -194L51 -215C104 -165 273 -23 273 265C273 542 108 675 51 726Z" stroke="rgb(0, 0, 0)" stroke-width="8" fill="rgb(0, 0, 0)" style="transform:scale(0.017,-0.017);"></path></g><g style="transform:translate(244.671875px,365.328125px);"><path d="M524 482C457 482 304 419 304 259C304 182 349 136 426 136C434 136 445 136 456 137L415 99C399 84 388 66 388 52C388 42 395 31 409 19C340 -4 212 -48 212 -159C212 -230 282 -276 391 -276C520 -276 633 -204 633 -121C633 -85 612 -49 569 -14L509 35C475 62 462 81 462 100C462 114 477 128 489 146C587 170 658 253 658 342C658 357 655 376 654 380C671 378 679 378 688 378C705 378 715 379 738 382L747 427L744 433C716 426 696 424 642 424C642 425 618 482 524 482ZM425 1L502 -58C548 -94 567 -121 567 -154C567 -206 498 -248 415 -248C333 -248 276 -206 276 -145C276 -43 386 -11 425 1ZM499 448C557 448 586 412 586 341C586 238 538 168 468 168C407 168 375 209 375 288C375 383 426 448 499 448Z" stroke="rgb(0, 0, 0)" stroke-width="8" fill="rgb(0, 0, 0)" style="transform:scale(0.017,-0.017);"></path></g><g style="transform:translate(257.265625px,365.328125px);"><path d="M146 266C146 526 243 632 301 700L282 726C225 675 60 542 60 266C60 159 85 58 133 -32C168 -99 200 -138 282 -215L301 -194C255 -137 146 -15 146 266Z" stroke="rgb(0, 0, 0)" stroke-width="8" fill="rgb(0, 0, 0)" style="transform:scale(0.017,-0.017);"></path></g><g style="transform:translate(262.671875px,365.328125px);"><path d="M9 1C24 -7 40 -11 52 -11C85 -11 124 18 155 65L231 182L242 113C255 28 278 -11 314 -11C336 -11 368 6 400 35L449 79L440 98C404 68 379 53 363 53C348 53 335 63 325 83C316 102 305 139 300 168L282 269L317 318C364 383 391 406 422 406C438 406 450 398 455 383L469 387L484 472C472 479 463 482 454 482C414 482 374 446 312 354L275 299L269 347C257 446 230 482 171 482C145 482 123 474 114 461L56 378L73 368C103 402 123 416 142 416C175 416 197 375 214 277L225 215L185 153C142 86 108 54 80 54C65 54 54 58 52 63L41 91L21 88C21 53 13 27 9 1Z" stroke="rgb(0, 0, 0)" stroke-width="8" fill="rgb(0, 0, 0)" style="transform:scale(0.017,-0.017);"></path></g><g style="transform:translate(271.390625px,365.328125px);"><path d="M51 726L32 700C87 636 187 526 187 266C187 -10 83 -131 32 -194L51 -215C104 -165 273 -23 273 265C273 542 108 675 51 726Z" stroke="rgb(0, 0, 0)" stroke-width="8" fill="rgb(0, 0, 0)" style="transform:scale(0.017,-0.017);"></path></g><g style="transform:translate(276.671875px,365.328125px);"><path d="" stroke="rgb(0, 0, 0)" stroke-width="8" fill="rgb(0, 0, 0)" style="transform:scale(0.017,-0.017);"></path></g><g style="transform:translate(284.671875px,365.328125px);"><path d="M555 243L555 299L51 299L51 243Z" stroke="rgb(0, 0, 0)" stroke-width="8" fill="rgb(0, 0, 0)" style="transform:scale(0.017,-0.017);"></path></g><g style="transform:translate(297.671875px,365.328125px);"><path d="M594 437L578 437L599 549C615 635 643 673 689 673C719 673 746 658 761 634L771 638C776 654 786 685 794 705L799 720C783 727 752 733 729 733C718 733 702 730 694 726C670 715 588 654 565 630C543 608 531 578 520 521L505 442C464 422 444 414 419 405L414 383L495 383L486 327C456 132 419 -54 397 -123C379 -182 349 -213 313 -213C290 -213 279 -206 261 -184L247 -188C243 -211 229 -259 224 -268C233 -273 248 -276 259 -276C300 -276 354 -245 393 -198C464 -114 484 -18 568 383L672 383C676 402 683 425 689 439L685 446C656 439 657 437 594 437Z" stroke="rgb(0, 0, 0)" stroke-width="8" fill="rgb(0, 0, 0)" style="transform:scale(0.017,-0.017);"></path></g><g style="transform:translate(311.125px,365.328125px);"><path d="M146 266C146 526 243 632 301 700L282 726C225 675 60 542 60 266C60 159 85 58 133 -32C168 -99 200 -138 282 -215L301 -194C255 -137 146 -15 146 266Z" stroke="rgb(0, 0, 0)" stroke-width="8" fill="rgb(0, 0, 0)" style="transform:scale(0.017,-0.017);"></path></g><g style="transform:translate(316.671875px,365.328125px);"><path d="M9 1C24 -7 40 -11 52 -11C85 -11 124 18 155 65L231 182L242 113C255 28 278 -11 314 -11C336 -11 368 6 400 35L449 79L440 98C404 68 379 53 363 53C348 53 335 63 325 83C316 102 305 139 300 168L282 269L317 318C364 383 391 406 422 406C438 406 450 398 455 383L469 387L484 472C472 479 463 482 454 482C414 482 374 446 312 354L275 299L269 347C257 446 230 482 171 482C145 482 123 474 114 461L56 378L73 368C103 402 123 416 142 416C175 416 197 375 214 277L225 215L185 153C142 86 108 54 80 54C65 54 54 58 52 63L41 91L21 88C21 53 13 27 9 1Z" stroke="rgb(0, 0, 0)" stroke-width="8" fill="rgb(0, 0, 0)" style="transform:scale(0.017,-0.017);"></path></g><g style="transform:translate(325.25px,365.328125px);"><path d="M51 726L32 700C87 636 187 526 187 266C187 -10 83 -131 32 -194L51 -215C104 -165 273 -23 273 265C273 542 108 675 51 726Z" stroke="rgb(0, 0, 0)" stroke-width="8" fill="rgb(0, 0, 0)" style="transform:scale(0.017,-0.017);"></path></g><g style="transform:translate(330.671875px,365.328125px);"><path d="M524 482C457 482 304 419 304 259C304 182 349 136 426 136C434 136 445 136 456 137L415 99C399 84 388 66 388 52C388 42 395 31 409 19C340 -4 212 -48 212 -159C212 -230 282 -276 391 -276C520 -276 633 -204 633 -121C633 -85 612 -49 569 -14L509 35C475 62 462 81 462 100C462 114 477 128 489 146C587 170 658 253 658 342C658 357 655 376 654 380C671 378 679 378 688 378C705 378 715 379 738 382L747 427L744 433C716 426 696 424 642 424C642 425 618 482 524 482ZM425 1L502 -58C548 -94 567 -121 567 -154C567 -206 498 -248 415 -248C333 -248 276 -206 276 -145C276 -43 386 -11 425 1ZM499 448C557 448 586 412 586 341C586 238 538 168 468 168C407 168 375 209 375 288C375 383 426 448 499 448Z" stroke="rgb(0, 0, 0)" stroke-width="8" fill="rgb(0, 0, 0)" style="transform:scale(0.017,-0.017);"></path></g><g><g style="transform:;transform-origin:345.2578125px 353.84375px;"><g><g style="transform:translate(343.609375px,358.24375px);"><path d="M174 685C117 612 79 545 45 459L58 446C94 458 104 461 155 476C161 555 185 623 233 699L218 709Z" stroke="rgb(0, 0, 0)" stroke-width="8" fill="rgb(0, 0, 0)" style="transform:scale(0.0119,-0.0119);"></path></g></g></g></g><g style="transform:translate(346.90625px,365.328125px);"><path d="M146 266C146 526 243 632 301 700L282 726C225 675 60 542 60 266C60 159 85 58 133 -32C168 -99 200 -138 282 -215L301 -194C255 -137 146 -15 146 266Z" stroke="rgb(0, 0, 0)" stroke-width="8" fill="rgb(0, 0, 0)" style="transform:scale(0.017,-0.017);"></path></g><g style="transform:translate(352.671875px,365.328125px);"><path d="M9 1C24 -7 40 -11 52 -11C85 -11 124 18 155 65L231 182L242 113C255 28 278 -11 314 -11C336 -11 368 6 400 35L449 79L440 98C404 68 379 53 363 53C348 53 335 63 325 83C316 102 305 139 300 168L282 269L317 318C364 383 391 406 422 406C438 406 450 398 455 383L469 387L484 472C472 479 463 482 454 482C414 482 374 446 312 354L275 299L269 347C257 446 230 482 171 482C145 482 123 474 114 461L56 378L73 368C103 402 123 416 142 416C175 416 197 375 214 277L225 215L185 153C142 86 108 54 80 54C65 54 54 58 52 63L41 91L21 88C21 53 13 27 9 1Z" stroke="rgb(0, 0, 0)" stroke-width="8" fill="rgb(0, 0, 0)" style="transform:scale(0.017,-0.017);"></path></g><g style="transform:translate(361.03125px,365.328125px);"><path d="M51 726L32 700C87 636 187 526 187 266C187 -10 83 -131 32 -194L51 -215C104 -165 273 -23 273 265C273 542 108 675 51 726Z" stroke="rgb(0, 0, 0)" stroke-width="8" fill="rgb(0, 0, 0)" style="transform:scale(0.017,-0.017);"></path></g></g></g><g style="transform:;transform-origin:289.4140625px 385.8203125px;"><g><g style="transform:translate(272.671875px,393.3125px);"><path d="M275 482C208 482 55 419 55 259C55 182 100 136 177 136C185 136 196 136 207 137L166 99C150 84 139 66 139 52C139 42 146 31 160 19C91 -4 -37 -48 -37 -159C-37 -230 33 -276 142 -276C271 -276 384 -204 384 -121C384 -85 363 -49 320 -14L260 35C226 62 213 81 213 100C213 114 228 128 240 146C338 170 409 253 409 342C409 357 406 376 405 380C422 378 430 378 439 378C456 378 466 379 489 382L498 427L495 433C467 426 447 424 393 424C393 425 369 482 275 482ZM176 1L253 -58C299 -94 318 -121 318 -154C318 -206 249 -248 166 -248C84 -248 27 -206 27 -145C27 -43 137 -11 176 1ZM250 448C308 448 337 412 337 341C337 238 289 168 219 168C158 168 126 209 126 288C126 383 177 448 250 448Z" stroke="rgb(0, 0, 0)" stroke-width="8" fill="rgb(0, 0, 0)" style="transform:scale(0.017,-0.017);"></path></g><g style="transform:translate(280.78125px,393.3125px);"><path d="M146 266C146 526 243 632 301 700L282 726C225 675 60 542 60 266C60 159 85 58 133 -32C168 -99 200 -138 282 -215L301 -194C255 -137 146 -15 146 266Z" stroke="rgb(0, 0, 0)" stroke-width="8" fill="rgb(0, 0, 0)" style="transform:scale(0.017,-0.017);"></path></g><g style="transform:translate(286.671875px,393.3125px);"><path d="M9 1C24 -7 40 -11 52 -11C85 -11 124 18 155 65L231 182L242 113C255 28 278 -11 314 -11C336 -11 368 6 400 35L449 79L440 98C404 68 379 53 363 53C348 53 335 63 325 83C316 102 305 139 300 168L282 269L317 318C364 383 391 406 422 406C438 406 450 398 455 383L469 387L484 472C472 479 463 482 454 482C414 482 374 446 312 354L275 299L269 347C257 446 230 482 171 482C145 482 123 474 114 461L56 378L73 368C103 402 123 416 142 416C175 416 197 375 214 277L225 215L185 153C142 86 108 54 80 54C65 54 54 58 52 63L41 91L21 88C21 53 13 27 9 1Z" stroke="rgb(0, 0, 0)" stroke-width="8" fill="rgb(0, 0, 0)" style="transform:scale(0.017,-0.017);"></path></g><g style="transform:translate(294.90625px,393.3125px);"><path d="M51 726L32 700C87 636 187 526 187 266C187 -10 83 -131 32 -194L51 -215C104 -165 273 -23 273 265C273 542 108 675 51 726Z" stroke="rgb(0, 0, 0)" stroke-width="8" fill="rgb(0, 0, 0)" style="transform:scale(0.017,-0.017);"></path></g><g><g style="transform:;transform-origin:303.5390625px 381.828125px;"><g><g style="transform:translate(300.5625px,386.228125px);"><path d="M16 23L16 -3C203 -3 203 0 239 0C275 0 275 -3 468 -3L468 82C353 77 307 81 122 77L304 270C401 373 431 428 431 503C431 618 353 689 226 689C154 689 105 669 56 619L39 483L68 483L81 529C97 587 133 612 200 612C286 612 341 558 341 473C341 398 299 324 186 204Z" stroke="rgb(0, 0, 0)" stroke-width="8" fill="rgb(0, 0, 0)" style="transform:scale(0.0119,-0.0119);"></path></g></g></g></g></g></g><line style="fill:none;stroke-width:1px;stroke:rgb(0, 0, 0);" x1="211.671875" y1="374.078125" x2="367.15625" y2="374.078125"></line></g></g></g></svg>